<svg width="134" height="48" viewBox="0 0 134 48" fill="none" xmlns="http://www.w3.org/2000/svg">
<path d="M85.3248 22.2748C87.5112 22.2748 88.6409 22.8943 89.2604 24.279C92.212 30.9111 95.1637 37.5432 98.0789 44.1753C98.6984 45.5965 98.2247 46.9448 96.9857 47.5643C95.6374 48.2202 94.1069 47.7465 93.3781 46.3617C92.7951 45.2321 92.3942 43.9931 91.8112 42.8635C91.5926 42.4626 91.0095 42.0618 90.5722 42.0254C87.4748 41.9525 84.4138 42.0254 81.3164 41.9889C80.5876 41.9889 80.1868 42.2076 79.9317 42.8999C79.5308 44.0296 79.0571 45.1228 78.547 46.1795C77.8546 47.6372 76.4334 48.2202 75.0487 47.6372C73.7369 47.0541 73.1902 45.7058 73.8462 44.2118C76.7614 37.5797 79.713 30.9475 82.6647 24.3154C83.3935 22.8943 84.4867 22.2748 85.3248 22.2748ZM89.479 37.2153C88.2765 34.4094 87.1833 31.7857 85.9443 28.7976C84.7054 31.8221 83.5757 34.4458 82.4096 37.2153C84.8147 37.2153 87.0011 37.2153 89.479 37.2153Z" fill="#423836"/>
<path d="M123.879 22.3477C126.502 22.3112 128.907 22.9672 131.203 24.279C132.697 25.1536 133.207 26.6476 132.442 27.9595C131.713 29.1984 130.256 29.3806 128.725 28.6883C127.304 28.0688 125.773 27.5951 124.279 27.1213C123.842 26.9756 123.296 27.0485 122.858 27.1213C121.656 27.3035 120.599 27.7044 120.38 29.0527C120.162 30.4738 121.036 31.1662 122.202 31.6035C123.551 32.1137 124.972 32.4416 126.357 32.8789C127.559 33.2797 128.798 33.6441 129.928 34.1907C132.515 35.3933 133.754 37.4339 133.717 40.2763C133.681 43.2279 132.551 45.5601 129.818 46.7991C125.445 48.8033 121.146 48.1109 116.955 46.1067C116.408 45.8516 115.898 45.4872 115.388 45.1592C114.149 44.2847 113.785 42.7906 114.513 41.5881C115.206 40.422 116.809 40.2034 118.157 40.8957C119.797 41.6974 121.437 42.572 123.186 43.0457C124.207 43.3372 125.445 43.0821 126.539 42.8999C127.486 42.7177 128.179 42.0618 128.288 41.0051C128.397 39.8754 127.851 39.1102 126.867 38.7093C125.409 38.1263 123.842 37.7254 122.385 37.2153C121.073 36.778 119.688 36.3772 118.413 35.7941C113.675 33.717 114.003 26.3197 118.012 23.8053C119.797 22.7121 121.765 22.2384 123.879 22.3477Z" fill="#423836"/>
<path d="M108.829 35.1746C108.829 38.3814 108.829 41.5881 108.829 44.8313C108.829 46.7262 107.808 47.8558 106.096 47.8558C104.456 47.8558 103.436 46.7626 103.436 44.9042C103.436 38.4178 103.436 31.9679 103.436 25.4815C103.436 23.6231 104.456 22.4934 106.023 22.457C107.699 22.4206 108.792 23.5138 108.792 25.4451C108.865 28.6518 108.829 31.9315 108.829 35.1746Z" fill="#423836"/>
<path d="M0.637817 4.45552C0.637817 4.45552 22.2833 19.7968 46.3338 13.7113C70.3844 7.62582 88.0943 -2.39523 96.0018 0.519982C92.0298 2.37843 82.7011 8.46394 73.6275 16.6265C64.5539 24.7892 35.256 38.5271 0.637817 4.45552Z" fill="url(#paint0_linear)"/>
<path d="M13.319 16.8816C13.319 16.8816 37.3695 39.6932 65.2098 23.7323C62.8048 27.0848 40.7949 55.9455 13.319 16.8816Z" fill="url(#paint1_linear)"/>
<defs>
<linearGradient id="paint0_linear" x1="39.2238" y1="10.8883" x2="84.0026" y2="-6.41562" gradientUnits="userSpaceOnUse">
<stop stop-color="#CADE1F"/>
<stop offset="1" stop-color="#6FA42E"/>
</linearGradient>
<linearGradient id="paint1_linear" x1="44.175" y1="27.7851" x2="16.0416" y2="18.2752" gradientUnits="userSpaceOnUse">
<stop stop-color="#CADE1F"/>
<stop offset="1" stop-color="#6FA42E"/>
</linearGradient>
</defs>
</svg>
