<svg width="147" height="48" viewBox="0 0 147 48" fill="none" xmlns="http://www.w3.org/2000/svg">
<path d="M124.3 19.3167H143.829L146.24 11.7004H66.5357C55.7683 11.7004 47.7856 18.186 43.8943 29.8309C40.003 41.4759 43.7279 47.947 54.4712 47.947H81.5657L81.5247 47.9036C81.7331 47.9336 81.9434 47.9481 82.154 47.947H82.3059C83.6536 47.9325 86.4045 47.4286 87.6269 43.8146H87.6486L92.755 28.1288C93.1359 26.3495 91.6074 26.1421 90.9661 26.1301H69.0263L66.5671 33.5559H75.5021L73.3178 40.2198H64.7058C58.9773 40.2198 57.6682 36.3984 59.8525 29.8309C60.894 26.6967 62.331 24.1893 64.1633 22.422C65.3085 21.3002 66.6983 20.4592 68.2234 19.9652C69.3155 19.6218 70.4539 19.4486 71.5988 19.4517H97.2274C100.169 16.5754 102.621 15.112 103.899 14.5695H107.481C105.972 15.5218 104.106 16.8382 102.835 18.2004C102.477 18.5625 102.142 18.9466 101.832 19.3504L101.758 19.4517C99.5588 22.205 97.7891 25.6334 96.48 29.708C92.7237 41.3891 96.5643 47.8553 107.452 47.8553H121.995L121.974 47.8433L129.091 47.8553H131.338C132.391 47.8336 134.776 47.4431 135.728 44.4993L137.122 40.1113H117.593C115.867 40.1113 114.541 39.7641 113.579 39.0987C111.336 37.5605 111.102 34.3105 112.564 29.708C114.688 23.1236 118.526 19.3167 124.3 19.3167Z" fill="#065BAA"/>
<path d="M22.1282 0C19.9969 5.13537 18.7817 8.1973 19.1868 12.5756C19.6232 17.2433 22.8032 20.9827 25.6964 24.1097C28.0423 26.6292 29.4648 28.2228 30.1133 31.1208C30.569 33.1243 31.0777 37.3724 28.0688 41.4639C24.4668 46.3485 18.6467 46.5269 18.6467 46.5269V48C18.6467 48 25.5831 47.7227 30.2989 43.4409C33.5658 40.4754 34.7231 37.8956 35.579 33.9055C36.3023 30.5301 35.4295 25.6841 33.3151 21.9688C32.2408 20.0965 30.9894 18.3316 29.5781 16.6984C27.1165 13.8317 25.354 11.915 23.7917 9.63424C22.3452 7.51499 21.4459 5.71641 21.4459 3.8672C21.4459 2.06861 22.1692 0.159124 22.1692 0.159124L22.1282 0Z" fill="#00AEEF"/>
<path d="M13.7355 0C15.8644 5.13537 17.0843 8.1973 16.6721 12.5756C16.2429 17.2433 13.0604 20.9754 10.1504 24.1097C7.80452 26.6292 6.38204 28.2228 5.73349 31.1208C5.28264 33.1243 4.7691 37.3724 7.78041 41.4639C11.38 46.3485 17.2049 46.5269 17.2049 46.5269V48C17.2049 48 10.2661 47.7227 5.54785 43.4409C2.28822 40.4705 1.13095 37.8884 0.265413 33.9006C-0.457878 30.5253 0.417304 25.6792 2.53173 21.9639C3.60513 20.0911 4.85658 18.3262 6.26873 16.6936C8.73274 13.8269 10.4927 11.9102 12.0551 9.62941C13.5016 7.51017 14.4058 5.71159 14.4058 3.86237C14.4058 2.06379 13.6825 0.154302 13.6825 0.154302L13.7355 0Z" fill="#00AEEF"/>
<path d="M20.1969 19.2034C21.2095 20.8621 23.7796 24.0036 25.853 25.9951C27.4697 27.5665 28.5825 29.5833 29.0498 31.7889C29.5172 33.9945 29.318 36.2892 28.4776 38.3813C27.6372 40.4734 26.1935 42.2682 24.3302 43.5376C22.467 44.807 20.2683 45.4935 18.0138 45.5098C15.7593 45.5262 13.5508 44.8716 11.6693 43.6294C9.78786 42.3872 8.31835 40.6135 7.4477 38.5338C6.57704 36.4541 6.3446 34.1625 6.77992 31.9503C7.21524 29.7382 8.29865 27.7055 9.89237 26.1108C10.8905 25.1175 13.9115 21.988 15.6281 19.2034C16.7011 17.4974 17.4787 15.6227 17.9281 13.6581C18.3652 15.6216 19.1324 17.4966 20.1969 19.2034" fill="#1B1464"/>
<path d="M27.2177 34.1514C27.2177 35.9881 26.6731 37.7835 25.6527 39.3107C24.6323 40.8379 23.182 42.0283 21.4852 42.7313C19.7883 43.4343 17.9211 43.6183 16.1197 43.2602C14.3182 42.902 12.6634 42.0177 11.3645 40.7192C10.0656 39.4206 9.18092 37.766 8.8223 35.9647C8.46369 34.1633 8.64726 32.2961 9.3498 30.599C10.0523 28.902 11.2423 27.4514 12.7692 26.4306C14.2962 25.4099 16.0915 24.8648 17.9282 24.8643C20.3915 24.8643 22.754 25.8427 24.496 27.5843C26.238 29.3259 27.217 31.6881 27.2177 34.1514" fill="#ED1C24"/>
</svg>
