<svg width="143" height="48" viewBox="0 0 143 48" fill="none" xmlns="http://www.w3.org/2000/svg">
<path fill-rule="evenodd" clip-rule="evenodd" d="M28.2837 18.0518C28.9443 17.4121 30.179 16.9219 30.179 16.9219C30.179 16.9219 20.4375 16.9429 18.6443 16.9429C16.8512 16.9429 14.8536 17.3702 13.8417 19.5434C12.8298 21.7167 0.838989 47.6199 0.838989 47.6199C0.838989 47.6199 7.95903 47.6409 10.7509 47.6409C13.5429 47.6409 15.1 45.3601 15.5274 44.4243C15.9547 43.4884 26.3778 21.1871 26.8261 20.1202C27.1318 19.3199 27.6329 18.6089 28.2837 18.0518ZM48.5375 35.2227C48.5375 35.2227 57.7783 34.9606 62.4158 31.4346C64.6231 29.7595 66.0859 26.9781 65.8474 24.3434C65.7753 23.3356 65.418 22.3691 64.8171 21.5568C64.0696 20.5403 63.0778 19.7288 61.9334 19.1974C58.8217 17.5825 54.3101 16.9507 50.0658 16.9507H41.9942L34.8532 16.9324C33.0627 16.9324 31.0598 17.3597 30.0348 19.5329C29.0098 21.7062 17.0321 47.6094 17.0321 47.6094C17.0321 47.6094 24.1521 47.6304 26.9441 47.6304C29.736 47.6304 31.2932 45.3496 31.7205 44.4138C31.8935 44.0336 33.7076 40.1407 35.8362 35.5793C36.3605 36.4024 37.396 38.0645 38.927 40.6047C41.2182 44.398 44.8621 47.591 48.084 47.591H58.1454V47.6094C58.1454 47.6094 65.2654 47.6304 68.0599 47.6304C70.8545 47.6304 72.409 45.3496 72.8337 44.4138C72.9936 44.0599 74.5718 40.6781 76.5038 36.5492C80.7145 36.7016 84.9305 36.4831 89.1029 35.8965C92.7992 35.4089 95.6907 34.8478 98.0449 34.043C95.9267 40.5392 97.6385 48 112.125 48C130.334 48 139.349 36.3316 139.913 35.5688H132.243L126.192 35.6002C126.192 35.6002 125.836 36.3867 121.211 38.0225C116.587 39.6583 108.502 40.4107 108.89 34.4992C109.312 27.9611 119.554 24.5191 125.684 25.3029C131.813 26.0867 129.776 28.6873 133.189 28.6873H141.746C141.746 28.6873 145.245 17.4148 127.049 16.9272C117.832 16.6807 111.021 19.4805 106.316 23.0379C104.808 18.5289 97.4681 16.9612 90.7806 16.9612H88.1958C87.9966 16.935 87.488 16.9219 87.488 16.9219C87.488 16.9219 77.7464 16.9429 75.9533 16.9429C74.1602 16.9429 72.1574 17.3702 71.135 19.5434C70.2541 21.4152 61.2492 40.8773 58.764 46.2514C56.4575 44.4839 54.3481 42.4729 52.4724 40.2534C49.6202 36.7589 48.5375 35.2227 48.5375 35.2227ZM42.0938 31.9642C40.5083 32.2328 38.9063 32.3931 37.2991 32.4439C39.2495 28.2626 41.3257 23.8611 42.3717 21.5908C45.0745 21.5227 48.624 21.6275 50.2153 21.6275C52.8892 21.6275 55.0336 23.7903 53.3008 26.3017C51.838 28.4304 47.135 31.0912 42.0938 31.9642ZM93.9002 26.3017C92.4374 28.4225 87.7344 31.0833 82.6932 31.9642C81.2761 32.2046 79.8456 32.3587 78.4097 32.4256C80.3601 28.2311 82.397 23.9187 83.4404 21.6564C86.0776 21.5882 89.3204 21.6275 90.8173 21.6275C93.4887 21.6354 95.6331 23.7982 93.9002 26.3096V26.3017Z" fill="url(#paint0_linear)"/>
<path fill-rule="evenodd" clip-rule="evenodd" d="M31.5553 7.49754C31.5553 11.6383 28.1985 14.9951 24.0577 14.9951C19.9169 14.9951 16.5602 11.6383 16.5602 7.49754C16.5602 3.35676 19.9169 4.58665e-07 24.0577 4.58665e-07C26.0464 -0.000694774 27.9538 0.788999 29.36 2.19521C30.7663 3.60142 31.556 5.50886 31.5553 7.49754Z" fill="#EA2E2E"/>
<defs>
<linearGradient id="paint0_linear" x1="18.4005" y1="31.3543" x2="97.4076" y2="48.6874" gradientUnits="userSpaceOnUse">
<stop stop-color="#191559"/>
<stop offset="0.536762" stop-color="#0E2767"/>
<stop offset="1" stop-color="#00A4EB"/>
</linearGradient>
</defs>
</svg>
