<svg width="144" height="49" viewBox="0 0 144 49" fill="none" xmlns="http://www.w3.org/2000/svg">
<path fill-rule="evenodd" clip-rule="evenodd" d="M28.5321 18.2421C29.1997 17.5957 30.4474 17.1003 30.4474 17.1003C30.4474 17.1003 20.6032 17.1215 18.7911 17.1215C16.9791 17.1215 14.9605 17.5533 13.9379 19.7495C12.9153 21.9456 0.798096 48.1219 0.798096 48.1219C0.798096 48.1219 7.9932 48.1431 10.8145 48.1431C13.6359 48.1431 15.2095 45.8383 15.6413 44.8926C16.0731 43.9468 26.6061 21.4105 27.0591 20.3323C27.3681 19.5236 27.8745 18.8051 28.5321 18.2421ZM48.9994 35.594C48.9994 35.594 58.3377 35.3291 63.024 31.766C65.2546 30.0732 66.7329 27.2625 66.4918 24.6001C66.419 23.5816 66.0579 22.6049 65.4507 21.784C64.6953 20.7568 63.693 19.9367 62.5366 19.3998C59.392 17.7679 54.8329 17.1294 50.5439 17.1294H42.3871L35.1708 17.1109C33.3615 17.1109 31.3375 17.5427 30.3017 19.7389C29.2659 21.935 17.1619 48.1113 17.1619 48.1113C17.1619 48.1113 24.357 48.1325 27.1784 48.1325C29.9997 48.1325 31.5733 45.8277 32.0051 44.882C32.18 44.4978 34.0132 40.5638 36.1643 35.9543C36.6941 36.7862 37.7405 38.4657 39.2876 41.0327C41.603 44.8661 45.2853 48.0927 48.5411 48.0927H58.7086V48.1113C58.7086 48.1113 65.9037 48.1325 68.7277 48.1325C71.5517 48.1325 73.1226 45.8277 73.5518 44.882C73.7134 44.5243 75.3082 41.1069 77.2606 36.9345C81.5157 37.0885 85.776 36.8677 89.9924 36.2749C93.7277 35.7821 96.6497 35.2152 99.0287 34.4019C96.8882 40.9665 98.6181 48.506 113.257 48.506C131.658 48.506 140.769 36.7146 141.338 35.9437H133.587L127.473 35.9755C127.473 35.9755 127.112 36.7703 122.439 38.4233C117.766 40.0764 109.596 40.8367 109.988 34.8629C110.415 28.2559 120.765 24.7775 126.959 25.5696C133.152 26.3617 131.094 28.9897 134.543 28.9897H143.19C143.19 28.9897 146.727 17.5983 128.339 17.1056C119.024 16.8566 112.142 19.6859 107.387 23.2808C105.863 18.7242 98.4459 17.14 91.6879 17.14H89.0758C88.8745 17.1135 88.3605 17.1003 88.3605 17.1003C88.3605 17.1003 78.5163 17.1215 76.7043 17.1215C74.8922 17.1215 72.8683 17.5533 71.8351 19.7495C70.945 21.6409 61.8452 41.3083 59.3338 46.739C57.0029 44.9528 54.8713 42.9206 52.9758 40.6778C50.0935 37.1464 48.9994 35.594 48.9994 35.594ZM42.4878 32.3011C40.8856 32.5726 39.2667 32.7346 37.6425 32.7859C39.6135 28.5605 41.7116 24.1126 42.7686 21.8184C45.4999 21.7496 49.0868 21.8555 50.6949 21.8555C53.397 21.8555 55.564 24.0411 53.8129 26.579C52.3347 28.7301 47.5821 31.419 42.4878 32.3011ZM94.8404 26.579C93.3621 28.7221 88.6096 31.411 83.5152 32.3011C82.0831 32.5441 80.6375 32.6998 79.1865 32.7674C81.1575 28.5287 83.2159 24.1709 84.2702 21.8847C86.9353 21.8158 90.2123 21.8555 91.725 21.8555C94.4244 21.8635 96.5915 24.049 94.8404 26.5869V26.579Z" fill="url(#paint0_linear)"/>
<path fill-rule="evenodd" clip-rule="evenodd" d="M31.8382 7.57658C31.8382 11.761 28.4461 15.1532 24.2616 15.1532C20.0772 15.1532 16.6851 11.761 16.6851 7.57658C16.6851 3.39215 20.0772 4.635e-07 24.2616 4.635e-07C26.2713 -0.000702099 28.1988 0.797316 29.6199 2.21835C31.0409 3.63939 31.8389 5.56693 31.8382 7.57658Z" fill="#EA2E2E"/>
<defs>
<linearGradient id="paint0_linear" x1="18.5448" y1="31.6849" x2="98.3847" y2="49.2006" gradientUnits="userSpaceOnUse">
<stop stop-color="#191559"/>
<stop offset="0.536762" stop-color="#0E2767"/>
<stop offset="1" stop-color="#00A4EB"/>
</linearGradient>
</defs>
</svg>
