<svg width="153" height="48" viewBox="0 0 153 48" fill="none" xmlns="http://www.w3.org/2000/svg">
<path d="M5.10057 28.1426C4.68973 27.8003 4.14194 27.6633 3.45721 27.6633H0.718262V29.3067H2.84094C3.45721 29.3752 3.38873 29.3752 3.45721 29.5806H3.52568H3.45721C3.32026 29.8545 2.63552 30.4023 2.63552 31.2924V42.0428V42.1797V42.4536H4.96363V42.1797V31.6348C4.96363 31.6348 4.96363 31.6348 4.96363 31.5663C4.89515 30.9501 5.71684 30.6077 5.78531 29.5121C5.71684 28.9643 5.51141 28.485 5.10057 28.1426ZM40.9807 37.7974L38.5842 30.8131H36.6669L34.2703 37.7974L32.4215 30.8131H30.0934L33.1748 42.4536H34.9551L37.6255 34.7161L40.2275 42.4536H42.0079L45.1576 30.8131H42.8295L40.9807 37.7974ZM52.4843 31.9087C51.6626 31.0185 50.4986 30.6077 49.0606 30.6077C47.9651 30.6077 47.0749 30.8131 46.3217 31.224L46.1847 31.2924L46.1163 31.3609V33.826L46.5956 33.5521C47.3488 33.0727 48.102 32.7988 48.9237 32.7988C49.7454 32.7988 50.2932 33.0043 50.704 33.4836C51.1148 33.9629 51.3203 34.5792 51.3203 35.4008V42.4536H53.5799V34.9215C53.5799 33.6205 53.169 32.5934 52.4843 31.9087ZM15.6455 31.7033C15.2347 31.3609 14.7554 31.087 14.2076 30.8816C13.6598 30.6762 13.0435 30.6077 12.3588 30.6077C11.1947 30.6077 10.1676 30.9501 9.20899 31.6348V30.8131H6.94936V42.4536H9.20899V34.9215C9.20899 34.3053 9.48288 33.8944 10.1676 33.4151C10.8524 32.9358 11.5371 32.7304 12.2903 32.7304C13.0435 32.7304 13.6598 32.9358 14.0706 33.3466C14.4815 33.7575 14.6869 34.2368 14.6869 34.9215V42.4536H16.9465V34.7161C16.9465 34.0998 16.8096 33.4836 16.6041 33.0043C16.3987 32.525 16.0564 32.1141 15.6455 31.7033ZM28.7924 30.8131H26.5328V39.7147C25.7111 40.2625 24.821 40.4679 23.8623 40.4679C22.8352 40.4679 22.082 40.2625 21.5342 39.9201C20.9865 39.5777 20.781 39.1669 20.781 38.5506C20.781 38.2767 20.8495 38.0713 20.9865 37.8659C21.1234 37.6605 21.3288 37.4551 21.5342 37.2496C21.7397 37.1127 22.0136 36.9757 22.2874 36.8388C22.5613 36.7703 22.8352 36.7018 23.1776 36.7018H24.684V34.5792H22.9722C21.5342 34.5792 21.1234 34.2368 21.1234 33.689C21.1234 33.1412 21.4658 32.8673 22.6298 32.8673C22.7668 32.8673 22.9722 32.8673 23.2461 32.9358C23.52 33.0043 23.9308 33.0727 24.3417 33.1412L24.4786 33.2097L24.684 33.2782V31.1555L24.4786 31.087C23.8623 30.8816 23.1776 30.7446 22.5613 30.7446C22.0136 30.7446 21.5342 30.8131 21.0549 30.9501C20.5756 31.087 20.2332 31.2924 19.8224 31.5663C19.48 31.8402 19.2061 32.1141 19.0007 32.525C18.7953 32.9358 18.7268 33.3466 18.7268 33.7575C18.7268 34.3053 18.9322 34.8531 19.3431 35.2639C19.5485 35.5378 19.8224 35.7432 20.0963 35.8802C19.7539 36.0856 19.48 36.3595 19.2061 36.7018C18.7268 37.3181 18.4529 38.0028 18.4529 38.6876C18.4529 39.7832 18.9322 40.8103 19.8909 41.5635C20.8495 42.3851 22.219 42.7275 23.9308 42.7275C25.985 42.7275 27.6969 42.1113 28.7924 40.8103V40.7418H28.8609V40.6733V40.6048V30.8131H28.7924ZM63.2347 26.9101V28.7589H72.4101V26.7047H63.2347V26.9101ZM92.8153 39.7147C91.9936 40.2625 91.1034 40.4679 90.1448 40.4679C89.1177 40.4679 88.3645 40.2625 87.8167 39.9201C87.2689 39.5777 87.0635 39.1669 86.995 38.5506C86.995 38.2767 87.0635 38.0713 87.2004 37.8659C87.3374 37.6605 87.5428 37.4551 87.7482 37.2496C87.9536 37.1127 88.2275 36.9757 88.5014 36.8388C88.7753 36.7703 89.0492 36.7018 89.3916 36.7018H90.898V34.5792H89.1862C87.7482 34.5792 87.3374 34.2368 87.3374 33.689C87.3374 33.1412 87.6797 32.8673 88.8438 32.8673C88.9807 32.8673 89.1862 32.8673 89.4601 32.9358C89.734 33.0043 90.0763 33.0727 90.5556 33.1412L90.6926 33.2097L90.898 33.2782V31.1555L90.6926 31.087C90.0763 30.8816 89.3916 30.7446 88.7753 30.7446C88.2275 30.7446 87.7482 30.8131 87.2689 30.9501C86.7896 31.087 86.4472 31.2924 86.0364 31.5663C85.694 31.8402 85.4201 32.1141 85.2147 32.525C85.0093 32.9358 84.9408 33.3466 84.9408 33.7575C84.9408 34.3053 85.1462 34.7846 85.5571 35.2639C85.7625 35.5378 86.0364 35.7432 86.3103 35.8802C85.9679 36.0856 85.694 36.3595 85.4201 36.7018C84.9408 37.3181 84.6669 37.9344 84.6669 38.6876C84.6669 39.8516 85.1462 40.8103 86.1049 41.5635C87.0635 42.3851 88.433 42.7275 90.1448 42.7275C92.199 42.7275 93.9109 42.1113 95.0064 40.8103L95.0749 40.6733V30.8131H92.8153V39.7147ZM93.637 26.02C92.9522 26.02 92.4729 26.1569 92.1305 26.4993C91.7882 26.8416 91.7197 27.321 91.7197 27.8687V28.485V28.622H93.9793V28.0742C94.0478 27.7318 93.9793 27.7318 94.5271 27.6633H95.6227V27.3894V26.2939V26.1569V26.02H93.637ZM70.1505 38.3452C70.1505 38.9615 69.8766 39.4408 69.3288 39.8516C68.7126 40.3309 68.0963 40.5364 67.4116 40.5364C66.6584 40.5364 66.179 40.3309 65.7682 39.9886C65.4258 39.6462 65.2204 39.2354 65.2204 38.5506V34.6476C65.2204 33.4151 64.6726 32.3195 63.714 31.6348C62.8238 30.9501 61.6598 30.6077 60.2218 30.6077C58.0992 30.6077 56.4558 31.4294 55.2917 33.1412V33.2097V42.4536H59.1947V40.3309H57.5514V33.8944C58.1676 33.1412 59.0578 32.7988 60.2903 32.7988C61.112 32.7988 61.7967 33.0043 62.276 33.3466C62.7554 33.689 63.0293 34.1683 63.0293 34.9215V38.6191C63.0293 39.7832 63.4401 40.8103 64.1933 41.5635C64.9465 42.3167 66.0421 42.7275 67.3431 42.7275C68.3702 42.7275 69.3973 42.3852 70.219 41.7689V42.4536H72.4786V30.8131H70.1505V38.3452ZM81.1748 33.4151L83.1605 31.6348L81.2432 30.6077L76.9294 34.3053L77.5457 34.4422C80.3531 34.9215 81.5171 36.0171 81.5171 37.8659C81.5171 38.6876 81.2432 39.3038 80.627 39.7832C80.0107 40.2625 79.2575 40.5364 78.1619 40.6048C78.0934 40.6048 78.025 40.6048 77.888 40.6048C77.6141 40.6048 77.4087 40.6048 77.2033 40.5364C76.9294 40.4679 76.724 40.4679 76.4501 40.3994V30.8131H74.2589V41.9058L74.4643 41.9743C75.6284 42.3852 76.7924 42.659 78.0934 42.659H78.2304C79.9422 42.659 81.3117 42.1797 82.4073 41.2896C83.3659 40.4679 83.8452 39.3038 83.8452 37.8659V37.7974C83.8452 35.8117 82.8866 34.3737 81.1748 33.4151Z" fill="#4B2885"/>
<path d="M152.798 0H104.319V48H152.798V0Z" fill="#4B2885"/>
<path d="M147.252 37.8659L142.116 17.8032L128.559 5.47791L115.001 17.8032L109.865 37.8659L119.588 42.4537H127.258V35.6063C127.258 35.6063 113.015 43.1384 116.713 26.2939C117.945 20.679 124.519 13.2839 128.216 11.1612C128.353 11.0927 128.422 11.0243 128.559 10.9558C132.256 12.7361 139.172 20.4736 140.404 26.2254C144.171 43.1384 129.928 35.6063 129.928 35.6063V42.4537H137.597L147.252 37.8659Z" fill="#FCAF17"/>
<path d="M65.3573 10.3395L65.7682 7.94297C65.7682 7.94297 63.7824 7.18976 61.112 7.18976C58.4415 7.18976 55.1548 7.94297 55.1548 11.709C55.1548 15.0642 58.9893 15.612 59.8794 15.8859C60.7696 16.0913 63.4401 16.6391 63.4401 18.0771C63.4401 19.515 61.4543 19.9943 60.2218 19.9943C57.4829 19.9259 55.4287 18.6933 55.4287 18.6933L55.0178 21.2268C55.0178 21.2268 57.072 22.3909 60.1533 22.3909C63.2347 22.3909 66.2475 21.0899 66.2475 18.0086C66.2475 15.1327 64.5357 14.1056 61.7967 13.4893C58.6469 12.7361 58.0307 12.2568 58.0307 11.4351C58.0307 10.545 58.9208 9.72328 61.2489 9.72328C63.2347 9.65481 65.3573 10.3395 65.3573 10.3395Z" fill="#4B2885"/>
<path d="M79.8738 10.2711L80.2162 7.80601C80.2162 7.80601 78.4359 7.0528 76.1078 7.0528C73.7112 7.0528 68.3702 7.53211 68.3702 14.7903C68.3702 21.98 73.8481 22.3909 75.9708 22.3909C78.0935 22.3909 80.2846 21.5007 80.2846 21.5007L79.9423 19.1042C79.9423 19.1042 78.4359 19.7889 76.3132 19.7889C74.259 19.7889 71.657 19.4465 71.657 14.7218C71.657 9.92869 74.259 9.65479 76.3816 9.65479C77.9565 9.72327 79.8738 10.2711 79.8738 10.2711Z" fill="#4B2885"/>
<path d="M92.8838 14.3795V14.2426C92.8838 14.2426 95.0749 13.9687 95.0749 11.0243C95.0749 8.01146 92.2675 7.32672 89.8025 7.32672C87.3374 7.32672 83.1605 7.32672 83.1605 7.32672V22.117C83.1605 22.117 86.8581 22.117 90.1448 22.117C93.4316 22.117 95.8281 21.0214 95.8281 17.9401C95.7597 14.9958 93.2946 14.5164 92.8838 14.3795ZM86.0364 9.79177C86.0364 9.79177 88.6384 9.79177 89.9394 9.79177C91.2404 9.79177 92.2675 10.2026 92.2675 11.6406C92.2675 12.9416 91.5828 13.4893 89.9394 13.4893C88.296 13.4893 86.0364 13.4893 86.0364 13.4893V9.79177ZM90.2133 19.652C88.8438 19.652 86.0364 19.652 86.0364 19.652V15.612C86.0364 15.612 89.2547 15.612 90.3503 15.612C91.3774 15.612 92.8153 15.8174 92.8153 17.5293C92.7468 19.4465 91.5828 19.652 90.2133 19.652Z" fill="#4B2885"/>
</svg>
