<?xml version="1.0" standalone="no"?>
<!DOCTYPE svg PUBLIC "-//W3C//DTD SVG 20010904//EN"
 "http://www.w3.org/TR/2001/REC-SVG-20010904/DTD/svg10.dtd">
<svg version="1.0" xmlns="http://www.w3.org/2000/svg"
 width="768.000000pt" height="768.000000pt" viewBox="0 0 768.000000 768.000000"
 preserveAspectRatio="xMidYMid meet">
<metadata>
Created by potrace 1.11, written by Peter Selinger 2001-2013
</metadata>
<g transform="translate(0.000000,768.000000) scale(0.100000,-0.100000)"
fill="#000000" stroke="none">
<path d="M5319 7677 c-5 -12 -2 -2297 2 -2297 6 0 99 71 125 95 6 5 26 21 44
35 18 14 38 30 44 35 6 6 34 28 61 50 28 21 52 42 55 45 3 3 28 23 55 45 28
22 77 62 111 90 33 27 78 64 99 80 22 17 49 39 61 50 13 11 37 31 55 45 18 14
121 97 229 185 108 88 213 174 234 190 21 17 48 38 60 49 11 10 58 48 104 84
l84 65 -29 24 c-15 14 -43 37 -62 51 -19 15 -46 37 -60 49 -14 13 -30 26 -36
31 -72 56 -171 138 -173 144 -2 5 -10 8 -17 8 -7 0 -15 4 -17 8 -1 5 -41 40
-88 78 -47 37 -90 73 -97 79 -6 5 -26 21 -44 35 -18 14 -40 32 -49 40 -9 8
-34 28 -55 45 -22 16 -56 44 -75 62 -19 18 -38 33 -42 33 -4 0 -15 8 -25 18
-10 10 -76 65 -148 123 -71 57 -137 109 -145 116 -75 61 -220 179 -237 194
-13 10 -23 18 -24 16z"/>
<path d="M3368 5555 c-2 -1 -41 -5 -88 -9 -47 -3 -96 -8 -110 -11 -14 -2 -42
-7 -64 -9 -21 -3 -46 -8 -55 -10 -9 -3 -33 -7 -53 -10 -49 -7 -125 -24 -163
-36 -16 -6 -66 -21 -110 -35 -157 -48 -281 -99 -435 -178 -84 -43 -266 -152
-280 -167 -3 -3 -30 -22 -60 -42 -31 -21 -64 -46 -75 -56 -11 -10 -30 -25 -42
-33 -56 -39 -197 -174 -338 -323 -83 -88 -268 -349 -325 -458 -14 -27 -28 -48
-32 -48 -5 0 -8 -5 -8 -11 0 -7 -19 -51 -43 -98 -63 -127 -167 -395 -182 -469
-2 -9 -10 -44 -18 -77 -9 -33 -18 -71 -21 -85 -3 -14 -7 -36 -10 -50 -17 -77
-28 -146 -43 -285 -16 -142 -9 -519 13 -650 2 -16 6 -44 7 -60 2 -17 7 -36 11
-43 4 -7 5 -12 3 -12 -4 0 24 -142 39 -195 3 -11 7 -31 10 -45 3 -14 25 -83
50 -155 25 -71 46 -134 48 -140 10 -35 132 -292 164 -345 14 -25 25 -48 24
-52 -1 -5 1 -8 6 -8 4 0 16 -17 27 -38 11 -20 22 -39 25 -42 3 -3 18 -25 34
-49 16 -25 33 -50 37 -55 5 -6 30 -40 56 -76 26 -36 52 -70 58 -76 5 -6 33
-37 60 -69 189 -221 484 -463 715 -585 25 -14 52 -29 60 -36 50 -37 439 -193
521 -209 11 -2 22 -6 27 -8 8 -5 219 -53 267 -61 73 -12 123 -18 160 -21 22
-2 40 -4 40 -5 0 -8 373 -12 440 -5 22 2 69 7 105 10 36 4 74 9 85 11 10 2 35
6 55 9 43 6 75 12 115 22 17 3 37 8 45 9 8 1 42 10 75 19 33 9 69 19 80 21 37
7 199 66 290 106 50 21 95 40 100 41 6 1 12 4 15 7 3 3 22 13 43 22 l37 18 1
-28 c1 -15 0 -31 -1 -37 -1 -5 -1 -17 -1 -25 0 -8 0 -59 1 -112 l0 -98 743 0
743 0 0 2770 c0 1524 -4 2770 -8 2770 -4 0 -16 -7 -25 -15 -10 -8 -99 -76
-198 -151 -99 -75 -216 -165 -260 -199 -394 -302 -436 -332 -447 -307 -3 8
-142 122 -192 157 -15 11 -33 25 -40 31 -60 55 -430 258 -546 299 -3 1 -16 6
-30 12 -93 39 -370 118 -485 138 -22 4 -51 9 -65 12 -27 5 -61 9 -150 19 -55
6 -426 14 -432 9z m302 -1520 c77 -8 234 -47 287 -70 129 -58 176 -83 255
-137 93 -64 223 -184 274 -253 16 -22 31 -42 34 -45 14 -12 89 -140 114 -195
58 -122 75 -184 70 -244 -5 -68 -12 -126 -14 -126 -1 0 -3 -11 -5 -25 -3 -23
-6 -45 -19 -135 -7 -49 -36 -184 -57 -270 -78 -316 -201 -565 -359 -725 -61
-62 -169 -150 -184 -150 -3 0 -23 -11 -44 -24 -20 -12 -41 -24 -47 -26 -15 -4
-27 -8 -60 -21 -34 -14 -41 -16 -73 -23 -12 -3 -26 -7 -31 -11 -9 -5 -23 -7
-131 -22 -71 -9 -238 -9 -315 1 -218 27 -464 135 -629 277 -45 38 -146 138
-146 144 0 3 -10 16 -21 28 -12 12 -43 56 -70 97 -27 41 -53 80 -59 87 -5 7
-10 16 -10 20 0 4 -11 29 -24 55 -18 36 -50 113 -46 113 0 0 -8 25 -18 56 -11
30 -23 75 -27 100 -4 24 -10 53 -11 64 -16 89 -19 122 -18 210 2 98 7 158 19
233 8 41 51 196 65 227 96 222 205 376 363 511 46 40 170 124 183 124 7 0 14
4 16 8 4 10 135 73 183 88 70 22 205 54 251 59 32 4 60 8 62 10 5 4 175 -3
242 -10z"/>
</g>
</svg>
