<svg xmlns="http://www.w3.org/2000/svg" xmlns:xlink="http://www.w3.org/1999/xlink" viewBox="0 0 672.57 298.88"><defs><style>.cls-1{fill:url(#linear-gradient);}.cls-2{fill:url(#linear-gradient-2);}.cls-3{fill:#f6c024;}.cls-4{fill:url(#linear-gradient-3);}.cls-5{fill:#4b2c79;}.cls-6{fill:url(#linear-gradient-4);}.cls-7{fill:#a11c39;}</style><linearGradient id="linear-gradient" x1="139.9" y1="143.89" x2="255.25" y2="259.25" gradientUnits="userSpaceOnUse"><stop offset="0" stop-color="#a01c38"/><stop offset="0.23" stop-color="#9d1d3b"/><stop offset="0.44" stop-color="#921f43"/><stop offset="0.64" stop-color="#802251"/><stop offset="0.82" stop-color="#672764"/><stop offset="0.98" stop-color="#4c2c78"/></linearGradient><linearGradient id="linear-gradient-2" x1="-1248.92" y1="-2048.33" x2="-1299.62" y2="-1997.63" gradientTransform="translate(-1838.07 1319.22) rotate(90)" gradientUnits="userSpaceOnUse"><stop offset="0" stop-color="#a01c38"/><stop offset="0.04" stop-color="#ac3235"/><stop offset="0.13" stop-color="#bf5830"/><stop offset="0.23" stop-color="#d0782c"/><stop offset="0.33" stop-color="#dd9229"/><stop offset="0.44" stop-color="#e8a726"/><stop offset="0.57" stop-color="#efb524"/><stop offset="0.72" stop-color="#f4bd23"/><stop offset="0.98" stop-color="#f5c023"/></linearGradient><linearGradient id="linear-gradient-3" x1="148.5" y1="239.61" x2="148.5" y2="126.71" gradientUnits="userSpaceOnUse"><stop offset="0" stop-color="#a01c38"/><stop offset="0.47" stop-color="#c56532"/><stop offset="0.83" stop-color="#dd952e"/><stop offset="1" stop-color="#e6a82d"/></linearGradient><linearGradient id="linear-gradient-4" x1="179.68" y1="129.63" x2="107.99" y2="129.63" gradientUnits="userSpaceOnUse"><stop offset="0" stop-color="#842452"/><stop offset="0.14" stop-color="#77265b"/><stop offset="0.45" stop-color="#5f296b"/><stop offset="0.73" stop-color="#512b75"/><stop offset="0.98" stop-color="#4c2c78"/></linearGradient></defs><title>Asset 1</title><g id="Layer_2" data-name="Layer 2"><g id="Layer_1-2" data-name="Layer 1"><polygon class="cls-1" points="215.98 82.54 157.07 126.72 157.07 298.51 215.98 298.51 215.98 82.54"/><polygon class="cls-2" points="235.62 44.95 179.17 0 179.17 89.9 235.62 44.95"/><path class="cls-3" d="M216,82.54l-58.9,44.17L189,196C206.61,169.08,216,130.5,216,82.54Z"/><path class="cls-4" d="M157.08,126.71c0,63.82-4.91,112.9-49.09,112.9,35.15,0,62.59-15.41,81-43.6"/><path class="cls-5" d="M108,239.61a45.16,45.16,0,0,0,16.19-2.73A49,49,0,0,1,108,239.61Z"/><path class="cls-5" d="M157.08,227.08C143,235.3,126.57,239.61,108,239.61h0a49.09,49.09,0,1,1,47.11-62.9c1.58-15,2-31.88,2-50l22.6-16.95a108,108,0,1,0-22.6,177Z"/><path class="cls-6" d="M108,141.44a49.1,49.1,0,0,1,47.11,35.27c1.58-15,2-31.88,2-50l22.6-16.95A107.63,107.63,0,0,0,108,82.54Z"/><path class="cls-5" d="M269.91,173.37V145.52h-8.22a1.27,1.27,0,0,1-1.19-.62,4,4,0,0,1-.36-2v-1.6a4.1,4.1,0,0,1,.36-2,1.29,1.29,0,0,1,1.19-.62h24.44a1.28,1.28,0,0,1,1.19.62,4.1,4.1,0,0,1,.36,2v1.6a4,4,0,0,1-.36,2,1.26,1.26,0,0,1-1.19.62h-8.21v27.85c0,1.1-1,1.65-3.1,1.65H273C270.94,175,269.91,174.47,269.91,173.37Z"/><path class="cls-5" d="M294.09,173.37V140.3c0-1.1,1-1.65,3.1-1.65H299c2.06,0,3.1.55,3.1,1.65v12.77H316V140.3c0-1.1,1-1.65,3.1-1.65H321c2.07,0,3.1.55,3.1,1.65v33.07c0,1.1-1,1.65-3.1,1.65h-1.81c-2.06,0-3.1-.55-3.1-1.65V159.89H302.1v13.48c0,1.1-1,1.65-3.1,1.65h-1.81C295.12,175,294.09,174.47,294.09,173.37Z"/><path class="cls-5" d="M332.16,173.89a4.53,4.53,0,0,1,.21-.93l11.37-33.22c.27-.73,1.25-1.09,2.94-1.09h2.69c1.72,0,2.7.36,2.94,1.09L363.68,173a3.32,3.32,0,0,1,.15.93c0,.75-.86,1.13-2.58,1.13H359c-1.69,0-2.66-.36-2.9-1.08l-2.06-6.3h-12.2l-2.06,6.3c-.24.72-1,1.08-2.38,1.08h-2.07C333.21,175,332.16,174.64,332.16,173.89Zm19.64-13.07-2.95-9.2a23.48,23.48,0,0,1-.77-3.31h-.21c0,.21-.11.67-.23,1.37a9.17,9.17,0,0,1-.54,1.94l-3.05,9.2Z"/><path class="cls-5" d="M371.27,173.37V140.3c0-1.13,1-1.7,3.1-1.7h1.81c2.07,0,3.1.57,3.1,1.7v33.07c0,1.14-1,1.71-3.1,1.71h-1.81C372.31,175.08,371.27,174.51,371.27,173.37Z"/><path class="cls-5" d="M395.27,174.43a2.15,2.15,0,0,1-.49-1.58V140.3c0-1.1,1-1.65,3.1-1.65h1.76c2.06,0,3.1.55,3.1,1.65v27.85H413.9a1.26,1.26,0,0,1,1.18.62,4,4,0,0,1,.37,2v1.6a3.93,3.93,0,0,1-.37,2,1.26,1.26,0,0,1-1.18.62h-17A2.15,2.15,0,0,1,395.27,174.43Z"/><path class="cls-5" d="M419.27,173.89a4.53,4.53,0,0,1,.21-.93l11.36-33.22c.28-.73,1.26-1.09,3-1.09h2.68c1.73,0,2.71.36,2.95,1.09L450.79,173a3.32,3.32,0,0,1,.15.93c0,.75-.86,1.13-2.58,1.13h-2.28c-1.68,0-2.65-.36-2.89-1.08l-2.07-6.3H428.93l-2.07,6.3q-.36,1.08-2.37,1.08h-2.07C420.32,175,419.27,174.64,419.27,173.89Zm19.63-13.07-2.94-9.2a24.66,24.66,0,0,1-.78-3.31H435c0,.21-.12.67-.24,1.37a9.17,9.17,0,0,1-.54,1.94l-3.05,9.2Z"/><path class="cls-5" d="M456.57,173.37V140.3c0-1.1,1-1.65,3.1-1.65h2.22a6.41,6.41,0,0,1,2.07.29,2.53,2.53,0,0,1,1.34,1.11L476.93,158a31.5,31.5,0,0,1,1.86,3.05l.2-.05c-.07-.79-.1-2-.1-3.51V140.3c0-1.1,1-1.65,3.1-1.65h1.5c2.07,0,3.1.55,3.1,1.65v33.07c0,1.1-1,1.65-3.1,1.65h-2a6.43,6.43,0,0,1-2.07-.28,2.53,2.53,0,0,1-1.34-1.11l-11.89-18.19a30.33,30.33,0,0,1-1.86-3.05l-.2.06c.06.79.1,2,.1,3.51v17.41c0,1.1-1,1.65-3.1,1.65h-1.5C457.6,175,456.57,174.47,456.57,173.37Z"/><path class="cls-5" d="M499.74,174.43a2.15,2.15,0,0,1-.49-1.58v-32a1.78,1.78,0,0,1,2.06-2.07h11.06q8,0,12.27,4.68t4.26,13.41q0,8.73-4.26,13.4t-12.27,4.68H501.31A2.13,2.13,0,0,1,499.74,174.43Zm12.63-6.28a7.25,7.25,0,0,0,6.25-2.89q2.11-2.89,2.12-8.42c0-3.69-.71-6.49-2.12-8.42a7.26,7.26,0,0,0-6.25-2.9h-5.12v22.63Z"/><path class="cls-5" d="M259.73,237.9a5.44,5.44,0,0,1,.24-1.09l13.37-39.07c.32-.85,1.48-1.27,3.46-1.27H280c2,0,3.18.42,3.46,1.27l13.37,39.07a3.81,3.81,0,0,1,.18,1.09c0,.89-1,1.33-3,1.33h-2.67c-2,0-3.12-.42-3.4-1.27l-2.43-7.41H271.09L268.66,238c-.28.85-1.21,1.27-2.79,1.27h-2.43C261,239.23,259.73,238.79,259.73,237.9Zm23.08-15.37-3.46-10.81a28.33,28.33,0,0,1-.91-3.89h-.24c0,.24-.13.78-.28,1.61a10.85,10.85,0,0,1-.63,2.28l-3.59,10.81Z"/><path class="cls-5" d="M308.75,237.29V198.41c0-1.33,1.22-2,3.65-2h2.13c2.42,0,3.64.67,3.64,2v38.88c0,1.34-1.22,2-3.64,2H312.4C310,239.3,308.75,238.63,308.75,237.29Z"/><path class="cls-5" d="M346.9,237.29V199a2.55,2.55,0,0,1,.58-1.85,2.5,2.5,0,0,1,1.85-.58h11.85q15.12,0,15.13,11.42a9.48,9.48,0,0,1-1.92,5.92,11.19,11.19,0,0,1-5.19,3.74v.24a5.71,5.71,0,0,1,2.37,2,15.41,15.41,0,0,1,2,3.55l5.35,13.37a3.7,3.7,0,0,1,.3,1.15c0,.37-.3.66-.91.88a8.53,8.53,0,0,1-2.73.33h-2.49c-2,0-3.16-.42-3.53-1.27l-4.8-11.85a7.65,7.65,0,0,0-2.21-2.82,7.08,7.08,0,0,0-3.92-.82h-2.37v14.82c0,1.3-1.22,1.94-3.65,1.94h-2.06C348.12,239.23,346.9,238.59,346.9,237.29ZM362,214.39a4.34,4.34,0,0,0,3.28-1.52,5.29,5.29,0,0,0,1.4-3.71,4.35,4.35,0,0,0-1.37-3.37,5.34,5.34,0,0,0-3.74-1.24h-5.34v9.84Z"/><path class="cls-5" d="M392.86,238.54a2.54,2.54,0,0,1-.58-1.86V199a2.09,2.09,0,0,1,2.43-2.43H416a1.48,1.48,0,0,1,1.4.73,4.77,4.77,0,0,1,.43,2.31v1.88a4.82,4.82,0,0,1-.43,2.31,1.5,1.5,0,0,1-1.4.73H401.64v8.81h12.75a1.48,1.48,0,0,1,1.4.73,4.75,4.75,0,0,1,.43,2.3v1.89a4.82,4.82,0,0,1-.43,2.31,1.49,1.49,0,0,1-1.4.72H401.64v9.85H416.1a1.49,1.49,0,0,1,1.39.72,4.82,4.82,0,0,1,.43,2.31v1.89a4.82,4.82,0,0,1-.43,2.31,1.49,1.49,0,0,1-1.39.72H394.71A2.55,2.55,0,0,1,392.86,238.54Z"/><path class="cls-5" d="M435.6,238.75a15.2,15.2,0,0,1-5.05-2.19c-1.13-.77-1.7-1.54-1.7-2.31a4.86,4.86,0,0,1,.67-2.18,10.29,10.29,0,0,1,1.58-2.25c.61-.65,1.11-1,1.52-1a5.33,5.33,0,0,1,1.7.73,32.82,32.82,0,0,0,3.52,1.52,11.52,11.52,0,0,0,3.71.54,8.1,8.1,0,0,0,4-.94,3.48,3.48,0,0,0,1.67-3.31,3.6,3.6,0,0,0-1.55-3.07,24.7,24.7,0,0,0-5-2.52l-2.8-1.21a17,17,0,0,1-6-4.53q-2.19-2.7-2.19-7.69a11.28,11.28,0,0,1,2-6.89,11.94,11.94,0,0,1,5.31-4.07,18.92,18.92,0,0,1,7.05-1.31,23.15,23.15,0,0,1,5.62.64,12.06,12.06,0,0,1,4,1.67,2.62,2.62,0,0,1,1.34,2,5.76,5.76,0,0,1-.55,2.12,9,9,0,0,1-1.34,2.22,2.08,2.08,0,0,1-1.46.94,3,3,0,0,1-1-.3c-.46-.2-.86-.37-1.18-.49a14.51,14.51,0,0,0-4.56-.73c-2.1,0-3.57.35-4.4,1a3,3,0,0,0-1.25,2.37,4,4,0,0,0,.85,2.62,6.74,6.74,0,0,0,2.07,1.67c.81.42,2,1,3.58,1.67a46.16,46.16,0,0,1,5.65,2.76,11.87,11.87,0,0,1,3.8,3.77,11.29,11.29,0,0,1,1.61,6.29,13.56,13.56,0,0,1-2,7.65,11.4,11.4,0,0,1-5.07,4.31,16.68,16.68,0,0,1-6.68,1.34A29.47,29.47,0,0,1,435.6,238.75Z"/><path class="cls-5" d="M471,238.54a2.59,2.59,0,0,1-.58-1.86V199a2.55,2.55,0,0,1,.58-1.85,2.52,2.52,0,0,1,1.85-.58h21.33a1.47,1.47,0,0,1,1.39.73,4.65,4.65,0,0,1,.43,2.31v1.88a4.7,4.7,0,0,1-.43,2.31,1.49,1.49,0,0,1-1.39.73h-14.4v8.81h12.76a1.48,1.48,0,0,1,1.39.73,4.64,4.64,0,0,1,.43,2.3v1.89a4.7,4.7,0,0,1-.43,2.31,1.49,1.49,0,0,1-1.39.72H479.76v9.85h14.46a1.5,1.5,0,0,1,1.4.72,4.84,4.84,0,0,1,.42,2.31v1.89a4.84,4.84,0,0,1-.42,2.31,1.5,1.5,0,0,1-1.4.72H472.83A2.56,2.56,0,0,1,471,238.54Z"/><path class="cls-5" d="M504.42,237.9a5,5,0,0,1,.25-1.09L518,197.74c.32-.85,1.48-1.27,3.46-1.27h3.16c2,0,3.18.42,3.47,1.27l13.36,39.07a3.81,3.81,0,0,1,.18,1.09c0,.89-1,1.33-3,1.33H536c-2,0-3.12-.42-3.4-1.27l-2.43-7.41H515.78L513.35,238c-.28.85-1.21,1.27-2.79,1.27h-2.43C505.66,239.23,504.42,238.79,504.42,237.9Zm23.09-15.37-3.46-10.81a28,28,0,0,1-.92-3.89h-.24l-.27,1.61a11.49,11.49,0,0,1-.64,2.28l-3.58,10.81Z"/><path class="cls-5" d="M551.32,237.29V199a2.09,2.09,0,0,1,2.43-2.43H565.6q15.12,0,15.12,11.42a9.48,9.48,0,0,1-1.91,5.92,11.3,11.3,0,0,1-5.19,3.74v.24a5.69,5.69,0,0,1,2.36,2,15.82,15.82,0,0,1,2,3.55l5.35,13.37a3.7,3.7,0,0,1,.3,1.15c0,.37-.3.66-.91.88a8.56,8.56,0,0,1-2.74.33H577.5c-2,0-3.15-.42-3.52-1.27l-4.8-11.85a7.66,7.66,0,0,0-2.22-2.82,7,7,0,0,0-3.91-.82h-2.37v14.82c0,1.3-1.22,1.94-3.65,1.94H555C552.54,239.23,551.32,238.59,551.32,237.29Zm15.13-22.9a4.34,4.34,0,0,0,3.28-1.52,5.29,5.29,0,0,0,1.4-3.71,4.35,4.35,0,0,0-1.37-3.37,5.34,5.34,0,0,0-3.74-1.24h-5.34v9.84Z"/><path class="cls-5" d="M597.28,234.28q-4.89-5.31-4.89-16.55,0-21.63,20.29-21.63a31.59,31.59,0,0,1,6.19.64,16.29,16.29,0,0,1,4.92,1.67c1.06.61,1.58,1.26,1.58,2a5.46,5.46,0,0,1-.66,2.21A11,11,0,0,1,623.1,205a2.54,2.54,0,0,1-1.68,1.07,8.75,8.75,0,0,1-1.45-.55,18.12,18.12,0,0,0-3.1-1,19.71,19.71,0,0,0-4.38-.43c-3.56,0-6.2,1.14-7.92,3.4S602,213.21,602,217.79q0,13.85,10.39,13.85a18.35,18.35,0,0,0,4.74-.54,26.51,26.51,0,0,0,3.89-1.4,3.71,3.71,0,0,1,1.34-.49,2.3,2.3,0,0,1,1.73,1,9.24,9.24,0,0,1,1.33,2.34,5.86,5.86,0,0,1,.52,1.92q0,1.58-2.13,2.79a16.1,16.1,0,0,1-5.28,1.73,35,35,0,0,1-6.14.58Q602.17,239.6,597.28,234.28Z"/><path class="cls-5" d="M637.34,237.29V198.41c0-1.29,1.22-1.94,3.64-1.94h2.13c2.43,0,3.65.65,3.65,1.94v15h16.4v-15c0-1.29,1.21-1.94,3.64-1.94h2.13c2.43,0,3.64.65,3.64,1.94v38.88c0,1.3-1.21,1.94-3.64,1.94H666.8c-2.43,0-3.64-.64-3.64-1.94V221.44h-16.4v15.85c0,1.3-1.22,1.94-3.65,1.94H641C638.56,239.23,637.34,238.59,637.34,237.29Z"/><path class="cls-5" d="M263,296.91V263.85c0-1.14,1-1.71,3.1-1.71h1.8c2.07,0,3.1.57,3.1,1.71v33.06c0,1.14-1,1.71-3.1,1.71h-1.8C264.07,298.62,263,298.05,263,296.91Z"/><path class="cls-5" d="M283.08,296.91V263.85c0-1.11,1-1.66,3.1-1.66h2.22a6.41,6.41,0,0,1,2.07.29,2.53,2.53,0,0,1,1.34,1.11l11.63,17.93a31.37,31.37,0,0,1,1.86,3l.2-.05c-.07-.79-.1-2-.1-3.51V263.85c0-1.11,1-1.66,3.1-1.66H310c2.07,0,3.1.55,3.1,1.66v33.06c0,1.11-1,1.66-3.1,1.66h-2a6.41,6.41,0,0,1-2.07-.29,2.53,2.53,0,0,1-1.34-1.11L292.74,279a30.2,30.2,0,0,1-1.86-3l-.2.05c.07.79.1,2,.1,3.51v17.41c0,1.11-1,1.66-3.1,1.66h-1.5C284.12,298.57,283.08,298,283.08,296.91Z"/><path class="cls-5" d="M326.64,298.15a12.66,12.66,0,0,1-4.29-1.86c-1-.65-1.45-1.31-1.45-2a4.14,4.14,0,0,1,.57-1.86,8.93,8.93,0,0,1,1.34-1.91c.52-.55.95-.83,1.29-.83a4.67,4.67,0,0,1,1.45.62,25,25,0,0,0,3,1.29,9.58,9.58,0,0,0,3.15.47,6.9,6.9,0,0,0,3.43-.8,3,3,0,0,0,1.43-2.82,3.06,3.06,0,0,0-1.32-2.61,21.1,21.1,0,0,0-4.26-2.14l-2.38-1a14.39,14.39,0,0,1-5.12-3.84,10.19,10.19,0,0,1-1.86-6.54,9.62,9.62,0,0,1,1.73-5.86,10.28,10.28,0,0,1,4.53-3.47,16,16,0,0,1,6-1.11,19.08,19.08,0,0,1,4.78.55,10,10,0,0,1,3.38,1.42,2.21,2.21,0,0,1,1.14,1.65,4.83,4.83,0,0,1-.47,1.81,7.69,7.69,0,0,1-1.13,1.88,1.77,1.77,0,0,1-1.24.8,2.52,2.52,0,0,1-.86-.25c-.39-.18-.73-.31-1-.42a12.31,12.31,0,0,0-3.88-.62,6,6,0,0,0-3.74.88,2.58,2.58,0,0,0-1.06,2,3.4,3.4,0,0,0,.72,2.22,5.68,5.68,0,0,0,1.76,1.42c.69.36,1.7.83,3,1.42a39.54,39.54,0,0,1,4.81,2.35,10,10,0,0,1,3.23,3.2,9.63,9.63,0,0,1,1.37,5.35,11.57,11.57,0,0,1-1.68,6.51,9.74,9.74,0,0,1-4.32,3.67,14.13,14.13,0,0,1-5.68,1.14A25.27,25.27,0,0,1,326.64,298.15Z"/><path class="cls-5" d="M358.36,296.91V269.06h-8.22a1.24,1.24,0,0,1-1.18-.62,3.9,3.9,0,0,1-.37-2v-1.6a3.9,3.9,0,0,1,.37-2,1.24,1.24,0,0,1,1.18-.62h24.44a1.26,1.26,0,0,1,1.19.62,4,4,0,0,1,.36,2v1.6a4,4,0,0,1-.36,2,1.26,1.26,0,0,1-1.19.62h-8.21v27.85c0,1.11-1,1.66-3.1,1.66h-1.81C359.39,298.57,358.36,298,358.36,296.91Z"/><path class="cls-5" d="M384,296.91V263.85c0-1.14,1-1.71,3.1-1.71h1.81c2.07,0,3.1.57,3.1,1.71v33.06c0,1.14-1,1.71-3.1,1.71h-1.81C385,298.62,384,298.05,384,296.91Z"/><path class="cls-5" d="M409.61,296.91V269.06h-8.22a1.24,1.24,0,0,1-1.18-.62,3.9,3.9,0,0,1-.37-2v-1.6a3.9,3.9,0,0,1,.37-2,1.24,1.24,0,0,1,1.18-.62h24.44a1.26,1.26,0,0,1,1.19.62,4,4,0,0,1,.36,2v1.6a4,4,0,0,1-.36,2,1.26,1.26,0,0,1-1.19.62h-8.21v27.85c0,1.11-1,1.66-3.1,1.66h-1.81C410.64,298.57,409.61,298,409.61,296.91Z"/><path class="cls-5" d="M437.61,295.6q-3.93-3.28-3.93-9.23V263.85c0-1.11,1-1.66,3.1-1.66h1.76c2.07,0,3.1.55,3.1,1.66v22a5.78,5.78,0,0,0,2,4.49,7.33,7.33,0,0,0,5.07,1.76,7.43,7.43,0,0,0,5.09-1.76,5.74,5.74,0,0,0,2-4.49v-22c0-1.11,1-1.66,3.1-1.66h1.7c2.07,0,3.1.55,3.1,1.66v22.52q0,5.94-3.93,9.23t-11.05,3.28Q441.53,298.88,437.61,295.6Z"/><path class="cls-5" d="M479.72,296.91V269.06H471.5a1.27,1.27,0,0,1-1.19-.62,4,4,0,0,1-.36-2v-1.6a4,4,0,0,1,.36-2,1.27,1.27,0,0,1,1.19-.62h24.44a1.26,1.26,0,0,1,1.19.62,4,4,0,0,1,.36,2v1.6a4,4,0,0,1-.36,2,1.26,1.26,0,0,1-1.19.62h-8.21v27.85c0,1.11-1,1.66-3.1,1.66h-1.81C480.75,298.57,479.72,298,479.72,296.91Z"/><path class="cls-5" d="M503.35,298a2.19,2.19,0,0,1-.49-1.57v-32a1.77,1.77,0,0,1,2.07-2.06h18.13a1.26,1.26,0,0,1,1.19.62,4,4,0,0,1,.36,2v1.6a4,4,0,0,1-.36,2,1.26,1.26,0,0,1-1.19.62H510.82v7.5h10.85a1.26,1.26,0,0,1,1.19.62,4,4,0,0,1,.36,2v1.6a4,4,0,0,1-.36,2,1.26,1.26,0,0,1-1.19.62H510.82v8.37h12.3a1.26,1.26,0,0,1,1.18.62,4,4,0,0,1,.37,2v1.6a3.93,3.93,0,0,1-.37,2,1.24,1.24,0,0,1-1.18.62H504.93A2.17,2.17,0,0,1,503.35,298Z"/><path class="cls-7" d="M271.53,118.14,260.38,84.92a4.53,4.53,0,0,1-.21-.93q0-1.14,3.15-1.14H265c1.72,0,2.73.5,3,1.5l7,22.37.57,1.81h.2l.57-1.81,7.18-22.37c.35-1,1.36-1.5,3.05-1.5h1.6c2.07,0,3.1.38,3.1,1.14a3.83,3.83,0,0,1-.15.93L280,118.14c-.24.72-1.21,1.09-2.89,1.09h-2.69C272.74,119.23,271.78,118.86,271.53,118.14Z"/><path class="cls-7" d="M300.26,117.57V84.51c0-1.14,1-1.71,3.1-1.71h1.81c2.07,0,3.1.57,3.1,1.71v33.06c0,1.14-1,1.71-3.1,1.71h-1.81C301.29,119.28,300.26,118.71,300.26,117.57Z"/><path class="cls-7" d="M323.61,118.81a12.84,12.84,0,0,1-4.29-1.86c-1-.65-1.44-1.31-1.44-2a4.14,4.14,0,0,1,.57-1.86,8.27,8.27,0,0,1,1.34-1.91c.52-.55.95-.83,1.29-.83a4.67,4.67,0,0,1,1.45.62,25.68,25.68,0,0,0,3,1.29,9.69,9.69,0,0,0,3.16.47,6.93,6.93,0,0,0,3.43-.8,3,3,0,0,0,1.42-2.82,3.06,3.06,0,0,0-1.32-2.61A20.56,20.56,0,0,0,328,104.4l-2.37-1a14.39,14.39,0,0,1-5.12-3.84A10.19,10.19,0,0,1,318.6,93a9.62,9.62,0,0,1,1.73-5.86,10.18,10.18,0,0,1,4.52-3.47,16.08,16.08,0,0,1,6-1.11,19.05,19.05,0,0,1,4.77.55A10.14,10.14,0,0,1,339,84.51a2.24,2.24,0,0,1,1.14,1.65,4.88,4.88,0,0,1-.47,1.81,7.42,7.42,0,0,1-1.14,1.88,1.75,1.75,0,0,1-1.24.8,2.55,2.55,0,0,1-.85-.25c-.4-.18-.73-.31-1-.42a12.25,12.25,0,0,0-3.87-.62,6.06,6.06,0,0,0-3.75.88,2.61,2.61,0,0,0-1.06,2,3.35,3.35,0,0,0,.73,2.22,5.64,5.64,0,0,0,1.75,1.42c.69.36,1.71.83,3.05,1.42a39.54,39.54,0,0,1,4.81,2.35,10.15,10.15,0,0,1,3.23,3.2,9.63,9.63,0,0,1,1.36,5.35,11.65,11.65,0,0,1-1.67,6.51,9.74,9.74,0,0,1-4.32,3.67,14.16,14.16,0,0,1-5.68,1.14A25.36,25.36,0,0,1,323.61,118.81Z"/><path class="cls-7" d="M357.92,117.57V89.72H349.7a1.24,1.24,0,0,1-1.18-.62,3.9,3.9,0,0,1-.37-2v-1.6a3.9,3.9,0,0,1,.37-2A1.24,1.24,0,0,1,349.7,83h24.44a1.26,1.26,0,0,1,1.19.62,4,4,0,0,1,.36,2v1.6a4,4,0,0,1-.36,2,1.26,1.26,0,0,1-1.19.62h-8.21v27.85c0,1.1-1,1.66-3.1,1.66H361C359,119.23,357.92,118.67,357.92,117.57Z"/><path class="cls-7" d="M385.69,118.63a2.14,2.14,0,0,1-.49-1.57V85A1.77,1.77,0,0,1,387.26,83H405.4a1.26,1.26,0,0,1,1.19.62,4,4,0,0,1,.36,2v1.6a4,4,0,0,1-.36,2,1.26,1.26,0,0,1-1.19.62H393.15v7.5H404a1.26,1.26,0,0,1,1.19.62,4,4,0,0,1,.36,2v1.6a4,4,0,0,1-.36,2A1.26,1.26,0,0,1,404,104H393.15v8.37h12.3a1.28,1.28,0,0,1,1.19.62,4.1,4.1,0,0,1,.36,2v1.6a4.06,4.06,0,0,1-.36,2,1.26,1.26,0,0,1-1.19.62H387.26A2.13,2.13,0,0,1,385.69,118.63Z"/><path class="cls-7" d="M421.13,115Q417,110.5,417,100.94q0-18.4,17.26-18.4a26,26,0,0,1,5.27.55,13.68,13.68,0,0,1,4.18,1.42c.9.51,1.34,1.06,1.34,1.65a4.59,4.59,0,0,1-.56,1.89,9.35,9.35,0,0,1-1.37,2.06,2.15,2.15,0,0,1-1.42.91,6.8,6.8,0,0,1-1.24-.47,16.93,16.93,0,0,0-2.64-.83,16.62,16.62,0,0,0-3.72-.36q-4.54,0-6.74,2.9c-1.46,1.93-2.2,4.84-2.2,8.73q0,11.78,8.84,11.78a15.43,15.43,0,0,0,4-.47,21.4,21.4,0,0,0,3.31-1.19,3.29,3.29,0,0,1,1.13-.41,1.9,1.9,0,0,1,1.47.88,7.48,7.48,0,0,1,1.14,2,5.15,5.15,0,0,1,.44,1.63c0,.89-.6,1.68-1.81,2.37a13.51,13.51,0,0,1-4.49,1.47,30,30,0,0,1-5.22.5Q425.29,119.54,421.13,115Z"/><path class="cls-7" d="M453.6,107.55a4.06,4.06,0,0,1-.36-2v-.37a4.06,4.06,0,0,1,.36-2,1.28,1.28,0,0,1,1.19-.62h10.54a1.28,1.28,0,0,1,1.19.62,4.06,4.06,0,0,1,.36,2v.37a4.06,4.06,0,0,1-.36,2,1.28,1.28,0,0,1-1.19.62H454.79A1.28,1.28,0,0,1,453.6,107.55Z"/><path class="cls-7" d="M480.34,117.91a10.6,10.6,0,0,1-3.44-4.78,20.53,20.53,0,0,1-1.24-7.54q0-6.41,2.87-10.16a9.55,9.55,0,0,1,8-3.74,8.74,8.74,0,0,1,5.27,1.6V81.82c0-1.1,1-1.65,3.1-1.65h1.45c2.07,0,3.1.55,3.1,1.65V110c0,1.58,0,2.79.13,3.62s.2,1.74.33,2.73a4.9,4.9,0,0,1,.16,1.14c0,.55-.7,1-2.09,1.24a19,19,0,0,1-3.7.41,1.31,1.31,0,0,1-1.29-.75,6.85,6.85,0,0,1-.54-1.6c-.12-.57-.2-.95-.23-1.16a7.27,7.27,0,0,1-2.77,2.79,8,8,0,0,1-4.16,1.09A8.17,8.17,0,0,1,480.34,117.91Zm11.49-7.67V98.71a7.34,7.34,0,0,0-3.61-1q-4.82,0-4.81,7.86,0,7.69,4.19,7.69Q490.08,113.28,491.83,110.24Z"/><path class="cls-7" d="M512.32,115.89q-3.33-3.65-3.34-10.1,0-7.28,3.34-10.69t9.22-3.41q5.73,0,8.45,3.72A15.89,15.89,0,0,1,532.7,105a3.47,3.47,0,0,1-1.06,1.83c-.71.81-1.23,1.22-1.58,1.22H516.89a5.85,5.85,0,0,0,1.76,4.18,6.34,6.34,0,0,0,4.18,1.24,9.49,9.49,0,0,0,2.64-.34,23.6,23.6,0,0,0,2.48-.85,3.36,3.36,0,0,1,1.13-.41,1.71,1.71,0,0,1,1.16.75,7,7,0,0,1,1.09,1.7,4,4,0,0,1,.44,1.48c0,.79-.54,1.47-1.6,2a13.46,13.46,0,0,1-3.83,1.26,21.19,21.19,0,0,1-3.87.42Q515.65,119.54,512.32,115.89ZM525.26,103a6.87,6.87,0,0,0-.93-3.8,3.13,3.13,0,0,0-2.79-1.42q-3.82,0-4.65,5.22Z"/><path class="cls-7" d="M542.41,128.11V101.19a34.07,34.07,0,0,0-.13-3.48c-.08-.81-.2-1.72-.33-2.72a5.25,5.25,0,0,1-.16-1.08c0-.55.7-1,2.09-1.24a19,19,0,0,1,3.7-.41,1.33,1.33,0,0,1,1.29.69,6.38,6.38,0,0,1,.54,1.5c.12.54.2.91.23,1.11a7.34,7.34,0,0,1,2.77-2.79,8.48,8.48,0,0,1,9.14.55A10.51,10.51,0,0,1,565,98.09a20.8,20.8,0,0,1,1.24,7.55q0,6.4-2.87,10.15a9.53,9.53,0,0,1-8,3.75,8.74,8.74,0,0,1-5.27-1.61v10.18c0,1.1-1,1.66-3.1,1.66h-1.45C543.44,129.77,542.41,129.21,542.41,128.11Zm16.07-22.47q0-7.69-4.19-7.7-2.47,0-4.23,3v11.52a7.34,7.34,0,0,0,3.61,1Q558.49,113.49,558.48,105.64Z"/><path class="cls-7" d="M576.07,117.47a8,8,0,0,1-1.83-5.48,8.87,8.87,0,0,1,3-6.87q3-2.73,11.8-2.74v-1.7a2.59,2.59,0,0,0-.95-2.22,5.1,5.1,0,0,0-3.08-.73,11.71,11.71,0,0,0-3.07.36,17.26,17.26,0,0,0-2.35.83,6.49,6.49,0,0,1-1.19.47q-.51,0-1.14-.78a8.87,8.87,0,0,1-1.08-1.78,4.15,4.15,0,0,1-.47-1.58c0-.58.44-1.15,1.3-1.7a11.52,11.52,0,0,1,3.56-1.35,23,23,0,0,1,5-.51c3.89,0,6.72.76,8.48,2.3a8,8,0,0,1,2.63,6.33V110c0,1.58,0,2.79.13,3.62s.2,1.74.34,2.73a5.41,5.41,0,0,1,.15,1.14c0,.55-.7,1-2.09,1.24a19,19,0,0,1-3.7.41,1.31,1.31,0,0,1-1.29-.75,6.85,6.85,0,0,1-.54-1.62c-.12-.59-.2-1-.23-1.19a7,7,0,0,1-1.24,1.47,9.51,9.51,0,0,1-2.59,1.68,8.7,8.7,0,0,1-3.77.78Q577.91,119.54,576.07,117.47Zm11.08-4.91a5.63,5.63,0,0,0,1.91-2.32v-2.85q-7.23,0-7.23,3.83a2.15,2.15,0,0,0,.67,1.65,2.74,2.74,0,0,0,1.91.62A4.6,4.6,0,0,0,587.15,112.56Z"/></g></g></svg>