<svg width="1440" height="480" viewBox="0 0 1440 480" fill="none" xmlns="http://www.w3.org/2000/svg">
<path d="M0 0H1440V480H0V0Z" fill="url(#paint0_linear)"/>
<path d="M292.309 214.014C291.039 210.924 290.39 207.595 290.402 204.234C290.413 200.872 291.085 197.549 292.377 194.468C296.261 185.24 304.927 179.685 314.788 179.443C318.139 179.364 321.472 179.979 324.593 181.252C327.714 182.525 330.562 184.43 332.97 186.859L325.433 196.787C324.175 195.074 322.532 193.711 320.647 192.818C318.763 191.925 316.697 191.53 314.631 191.667C311.59 191.842 308.733 193.236 306.658 195.557C304.583 197.878 303.451 200.946 303.5 204.117C303.567 210.52 308.729 216.566 315.281 216.722C319.613 216.784 323.752 214.387 325.627 210.925L333 221.507C328.279 226.495 321.877 228.852 315.408 228.984C305.577 229.132 296.194 223.203 292.309 214.014Z" fill="#B50938"/>
<path d="M166.642 179.405H153.569V228.658H166.642V179.405Z" fill="#582E91"/>
<path fill-rule="evenodd" clip-rule="evenodd" d="M100 179.405H113.133V212.894L137.329 179.405H153.503L117.921 228.665H100V179.405Z" fill="#582E91"/>
<path d="M192.065 228.728C184.236 228.728 176.377 226.308 170.453 220.776L177.117 211.547C181.972 215.726 187.142 217.679 192.513 217.679C193.883 217.777 195.253 217.472 196.465 216.8C197.069 216.399 197.508 215.78 197.699 215.061C197.889 214.342 197.817 213.575 197.496 212.909C196.33 210.886 192.065 210.147 190.025 209.61C187.703 209.105 185.413 208.453 183.168 207.657C176.601 205.455 172.074 200.701 172.657 193.216C172.8 190.991 173.442 188.832 174.532 186.913C175.622 184.994 177.129 183.369 178.932 182.167C182.226 179.941 186.499 179 190.511 179C197.369 179 204.032 180.821 209.463 185.404L202.8 194.562C200.157 192.596 197.166 191.197 194 190.446C191.482 189.839 188.442 189.574 186.694 190.92C186.141 191.34 185.758 191.959 185.62 192.657C185.481 193.355 185.598 194.081 185.947 194.694C186.656 195.916 188.374 196.453 189.644 196.896C190.675 197.231 191.968 197.573 193.589 197.978C197.145 198.756 201.35 199.861 204.712 202.016C206.702 203.187 208.332 204.924 209.41 207.024C210.488 209.124 210.97 211.499 210.8 213.874C210.682 216.552 209.867 219.147 208.442 221.379C207.017 223.612 205.035 225.399 202.71 226.549C199.359 228.084 195.724 228.828 192.065 228.728Z" fill="#582E91"/>
<path d="M290.053 217.002H265.296V209.26H287.871V198.476H265.296V191.403H290.053V179.537H252.141V228.595H290.053V217.002Z" fill="#B50938"/>
<path d="M249.997 179.537H209.53V191.403H223.634V228.595H236.64V191.403H249.997V179.537Z" fill="#B50938"/>
<path fill-rule="evenodd" clip-rule="evenodd" d="M365.5 207.182L356.109 216.841L353.016 213.659L362.406 204L353.016 194.341L356.109 191.159L365.5 200.818L374.891 191.159L377.984 194.341L368.594 204L377.984 213.659L374.891 216.841L365.5 207.182Z" fill="white" fill-opacity="0.6"/>
<path d="M558.713 180.959L511.058 254L566 215.808L558.713 180.959Z" fill="url(#paint1_linear)"/>
<g style="mix-blend-mode:multiply" opacity="0.15">
<path d="M566 215.808L530.57 224.043L535.974 215.808H566Z" fill="#636466"/>
</g>
<path d="M504.536 154L530.51 215.808H566L504.536 154Z" fill="url(#paint2_linear)"/>
<path d="M427.59 224.742H422.644C422.441 223.738 422.358 222.714 422.396 221.691C421.074 222.963 419.51 223.955 417.796 224.608C416.082 225.261 414.255 225.562 412.423 225.493C410.505 225.533 408.6 225.169 406.833 224.423C405.065 223.677 403.474 222.567 402.164 221.165C399.397 218.28 398.011 214.608 398.006 210.15C397.951 208.244 398.276 206.346 398.962 204.567C399.647 202.788 400.679 201.164 401.998 199.789C403.282 198.43 404.837 197.357 406.561 196.638C408.286 195.92 410.142 195.572 412.01 195.618C416.127 195.618 419.48 196.913 422.066 199.503V183.161H427.259V217.243C427.259 219.557 427.37 222.057 427.59 224.742ZM422.066 214.102V207.64C422.066 205.552 421.053 203.733 419.019 202.2C417.166 200.723 414.873 199.909 412.505 199.886C411.223 199.831 409.945 200.061 408.763 200.56C407.581 201.059 406.524 201.814 405.668 202.771C403.925 204.809 403.014 207.431 403.117 210.112C403.117 213.469 403.967 216.108 405.668 218.032C407.369 219.955 409.758 220.92 412.835 220.925C415.202 221.031 417.541 220.381 419.515 219.069C420.319 218.519 420.974 217.777 421.419 216.909C421.865 216.042 422.087 215.077 422.066 214.102Z" fill="#0C2F53"/>
<path d="M457.331 223.261C453.677 224.685 449.799 225.449 445.878 225.516C441.426 225.516 437.758 224.181 434.876 221.511C433.457 220.193 432.339 218.583 431.6 216.792C430.86 215.001 430.516 213.071 430.591 211.134C430.591 206.461 432.02 202.666 434.876 199.751C436.288 198.381 437.96 197.31 439.793 196.6C441.626 195.89 443.584 195.556 445.548 195.618C454.009 195.618 458.321 200.928 458.486 211.548H435.664C435.89 214.553 436.933 216.807 438.831 218.43C440.908 220.117 443.53 220.983 446.201 220.865C449.818 220.764 453.39 220.039 456.76 218.723L457.331 223.261ZM453.383 207.175C453.192 205.125 452.221 203.227 450.669 201.876C449.118 200.524 447.107 199.822 445.053 199.916C442.918 199.897 440.842 200.61 439.169 201.938C437.475 203.217 436.338 205.101 435.995 207.197L453.383 207.175Z" fill="#0C2F53"/>
<path d="M490.705 209.977C490.705 214.545 489.306 218.272 486.51 221.158C485.163 222.57 483.535 223.686 481.733 224.433C479.93 225.179 477.991 225.54 476.041 225.493C472.198 225.493 469.066 224.363 466.645 222.104V236.546H461.459V205.777C461.515 202.58 461.402 199.382 461.121 196.197H466.232L466.81 199.255C469.563 196.892 473.075 195.601 476.701 195.618C478.572 195.563 480.433 195.902 482.165 196.614C483.896 197.326 485.458 198.395 486.75 199.751C488.054 201.107 489.076 202.71 489.755 204.466C490.434 206.221 490.757 208.095 490.705 209.977ZM485.684 210.06C485.755 207.399 484.795 204.815 483.005 202.847C482.151 201.894 481.101 201.139 479.927 200.633C478.753 200.127 477.483 199.882 476.206 199.916C473.815 199.993 471.532 200.929 469.774 202.554C467.668 204.312 466.615 206.258 466.615 208.392V213.005C466.618 214.076 466.86 215.132 467.324 216.096C467.787 217.061 468.461 217.91 469.294 218.58C471.106 220.159 473.444 220.999 475.845 220.932C478.922 220.932 481.326 219.955 483.058 218.002C484.789 216.048 485.664 213.401 485.684 210.06Z" fill="#0C2F53"/>
<path d="M516.746 224.501L511.883 225.493L511.065 221.856C508.463 224.204 505.082 225.5 501.579 225.493C499.053 225.589 496.574 224.791 494.577 223.239C493.662 222.502 492.927 221.567 492.428 220.503C491.928 219.439 491.678 218.275 491.695 217.1C491.695 210.112 497.932 206.538 510.405 206.378C509.849 202.253 507.598 200.179 503.65 200.179C500.284 200.266 496.962 200.968 493.849 202.253L493.271 197.542C496.717 196.488 500.295 195.934 503.898 195.896C511.703 195.896 515.605 199.904 515.605 207.918V217.243C515.66 219.702 516.044 222.144 516.746 224.501ZM510.405 215.838V210.894C501.449 211.054 496.971 212.95 496.971 216.582C496.971 219.497 498.59 220.955 501.827 220.955C503.715 220.945 505.576 220.503 507.268 219.662C509.391 218.588 510.405 217.318 510.405 215.838Z" fill="#0C2F53"/>
<path d="M119.836 306.496L102.376 298.576V294.004L119.836 286.048V290.8L106.228 296.236L119.836 301.708V306.496ZM153.845 283.24V287.236H145.889V307H140.921V287.236H132.929V283.24H153.845ZM164.321 295.516C164.321 294.484 164.021 293.68 163.421 293.104C162.845 292.528 162.077 292.24 161.117 292.24C160.229 292.24 159.449 292.468 158.777 292.924C158.105 293.38 157.613 294.136 157.301 295.192L153.089 293.896C153.497 292.312 154.385 291.04 155.753 290.08C157.145 289.12 159.005 288.64 161.333 288.64C162.917 288.64 164.297 288.892 165.473 289.396C166.649 289.876 167.561 290.608 168.209 291.592C168.881 292.576 169.217 293.812 169.217 295.3V302.608C169.217 303.52 169.649 303.976 170.513 303.976C170.921 303.976 171.305 303.916 171.665 303.796L171.377 306.856C170.753 307.168 169.973 307.324 169.037 307.324C168.197 307.324 167.441 307.18 166.769 306.892C166.097 306.604 165.569 306.172 165.185 305.596C164.801 304.996 164.609 304.252 164.609 303.364V303.22L165.473 303.076C165.329 303.988 164.933 304.768 164.285 305.416C163.637 306.04 162.845 306.52 161.909 306.856C160.997 307.192 160.049 307.36 159.065 307.36C157.841 307.36 156.785 307.18 155.897 306.82C155.009 306.436 154.325 305.884 153.845 305.164C153.365 304.444 153.125 303.556 153.125 302.5C153.125 301.156 153.557 300.064 154.421 299.224C155.285 298.36 156.521 297.772 158.129 297.46L164.897 296.092L164.861 299.152L160.541 300.016C159.725 300.184 159.101 300.412 158.669 300.7C158.261 300.964 158.057 301.408 158.057 302.032C158.057 302.632 158.273 303.088 158.705 303.4C159.161 303.712 159.701 303.868 160.325 303.868C160.829 303.868 161.321 303.808 161.801 303.688C162.281 303.568 162.713 303.376 163.097 303.112C163.481 302.848 163.781 302.488 163.997 302.032C164.213 301.576 164.321 301.024 164.321 300.376V295.516ZM191.434 284.716L192.01 288.244C191.914 288.244 191.806 288.244 191.686 288.244C191.59 288.22 191.482 288.208 191.362 288.208C190.282 288.208 189.454 288.46 188.878 288.964C188.326 289.444 188.05 290.116 188.05 290.98L186.034 290.152C186.034 289.192 186.226 288.304 186.61 287.488C186.994 286.648 187.558 285.976 188.302 285.472C189.07 284.968 189.982 284.716 191.038 284.716C191.086 284.716 191.146 284.716 191.218 284.716C191.29 284.716 191.362 284.716 191.434 284.716ZM185.53 303.616C187.474 303.616 188.974 304.036 190.03 304.876C191.086 305.716 191.614 306.892 191.614 308.404C191.614 309.772 191.218 310.924 190.426 311.86C189.634 312.82 188.518 313.54 187.078 314.02C185.662 314.5 184.018 314.74 182.146 314.74C179.05 314.74 176.782 314.308 175.342 313.444C173.926 312.58 173.218 311.452 173.218 310.06C173.218 309.076 173.59 308.248 174.334 307.576C175.102 306.904 176.362 306.532 178.114 306.46L177.934 307.036C176.686 306.82 175.726 306.412 175.054 305.812C174.406 305.188 174.082 304.336 174.082 303.256C174.082 302.152 174.502 301.252 175.342 300.556C176.206 299.836 177.37 299.416 178.834 299.296L180.994 300.304H180.49C179.458 300.376 178.726 300.592 178.294 300.952C177.886 301.288 177.682 301.672 177.682 302.104C177.682 302.608 177.874 302.992 178.258 303.256C178.666 303.496 179.242 303.616 179.986 303.616H185.53ZM182.182 311.356C183.43 311.356 184.45 311.248 185.242 311.032C186.058 310.816 186.658 310.54 187.042 310.204C187.45 309.868 187.654 309.496 187.654 309.088C187.654 308.632 187.474 308.26 187.114 307.972C186.754 307.708 186.106 307.576 185.17 307.576H179.086C178.51 307.576 178.03 307.72 177.646 308.008C177.286 308.296 177.106 308.692 177.106 309.196C177.106 309.868 177.55 310.396 178.438 310.78C179.35 311.164 180.598 311.356 182.182 311.356ZM182.218 288.64C183.898 288.64 185.35 288.892 186.574 289.396C187.822 289.876 188.77 290.572 189.418 291.484C190.09 292.396 190.426 293.488 190.426 294.76C190.426 296.008 190.09 297.088 189.418 298C188.77 298.912 187.822 299.62 186.574 300.124C185.35 300.604 183.898 300.844 182.218 300.844C179.554 300.844 177.514 300.304 176.098 299.224C174.682 298.12 173.974 296.632 173.974 294.76C173.974 293.488 174.31 292.396 174.982 291.484C175.654 290.572 176.602 289.876 177.826 289.396C179.05 288.892 180.514 288.64 182.218 288.64ZM182.218 291.736C181.258 291.736 180.466 292 179.842 292.528C179.218 293.056 178.906 293.788 178.906 294.724C178.906 295.66 179.218 296.404 179.842 296.956C180.466 297.484 181.258 297.748 182.218 297.748C183.178 297.748 183.958 297.484 184.558 296.956C185.182 296.404 185.494 295.66 185.494 294.724C185.494 293.788 185.182 293.056 184.558 292.528C183.958 292 183.178 291.736 182.218 291.736ZM199.456 281.116V301.456C199.456 302.296 199.6 302.884 199.888 303.22C200.176 303.556 200.656 303.724 201.328 303.724C201.736 303.724 202.072 303.7 202.336 303.652C202.6 303.58 202.936 303.484 203.344 303.364L202.912 306.604C202.504 306.844 201.988 307.024 201.364 307.144C200.764 307.288 200.164 307.36 199.564 307.36C197.812 307.36 196.528 306.94 195.712 306.1C194.92 305.236 194.524 303.868 194.524 301.996V281.116H199.456ZM208.576 286.408C207.544 286.408 206.776 286.192 206.272 285.76C205.768 285.304 205.516 284.644 205.516 283.78C205.516 282.892 205.768 282.232 206.272 281.8C206.776 281.344 207.544 281.116 208.576 281.116C209.608 281.116 210.376 281.344 210.88 281.8C211.384 282.232 211.636 282.892 211.636 283.78C211.636 284.644 211.384 285.304 210.88 285.76C210.376 286.192 209.608 286.408 208.576 286.408ZM211.024 289V307H206.092V289H211.024ZM216.252 307V289H220.68L220.968 294.4L220.356 293.824C220.644 292.648 221.1 291.688 221.724 290.944C222.348 290.176 223.104 289.6 223.992 289.216C224.904 288.832 225.9 288.64 226.98 288.64C228.228 288.64 229.332 288.88 230.292 289.36C231.276 289.84 232.044 290.572 232.596 291.556C233.172 292.516 233.46 293.728 233.46 295.192V307H228.528V296.596C228.528 295.06 228.228 294.004 227.628 293.428C227.028 292.828 226.248 292.528 225.288 292.528C224.616 292.528 223.956 292.696 223.308 293.032C222.684 293.344 222.168 293.86 221.76 294.58C221.376 295.3 221.184 296.26 221.184 297.46V307H216.252ZM246.893 307.36C244.997 307.36 243.341 306.988 241.925 306.244C240.533 305.5 239.453 304.432 238.685 303.04C237.917 301.648 237.533 299.968 237.533 298C237.533 296.032 237.917 294.352 238.685 292.96C239.453 291.568 240.521 290.5 241.889 289.756C243.281 289.012 244.865 288.64 246.641 288.64C248.465 288.64 250.013 289.012 251.285 289.756C252.557 290.476 253.529 291.472 254.201 292.744C254.873 293.992 255.209 295.42 255.209 297.028C255.209 297.508 255.197 297.964 255.173 298.396C255.149 298.828 255.113 299.212 255.065 299.548H240.701V296.128H252.905L250.529 296.992C250.529 295.48 250.181 294.316 249.485 293.5C248.813 292.684 247.853 292.276 246.605 292.276C245.693 292.276 244.901 292.492 244.229 292.924C243.581 293.356 243.089 294.004 242.753 294.868C242.417 295.708 242.249 296.776 242.249 298.072C242.249 299.344 242.429 300.4 242.789 301.24C243.173 302.056 243.701 302.668 244.373 303.076C245.069 303.484 245.897 303.688 246.857 303.688C247.913 303.688 248.765 303.484 249.413 303.076C250.061 302.668 250.565 302.104 250.925 301.384L254.849 302.896C254.465 303.832 253.877 304.636 253.085 305.308C252.317 305.98 251.393 306.496 250.313 306.856C249.257 307.192 248.117 307.36 246.893 307.36ZM269.709 286.084L287.169 294.004V298.576L269.709 306.532V301.78L283.317 296.344L269.709 290.872V286.084Z" fill="white" fill-opacity="0.8"/>
<defs>
<linearGradient id="paint0_linear" x1="0" y1="0" x2="1405.34" y2="566.051" gradientUnits="userSpaceOnUse">
<stop stop-color="#FFF200"/>
<stop offset="0.334027" stop-color="#A6253B"/>
<stop offset="1" stop-color="#52348C"/>
</linearGradient>
<linearGradient id="paint1_linear" x1="547.561" y1="209.88" x2="491.931" y2="252.997" gradientUnits="userSpaceOnUse">
<stop stop-color="#FFF200"/>
<stop offset="1" stop-color="#FFC60B"/>
</linearGradient>
<linearGradient id="paint2_linear" x1="14356.1" y1="5719.79" x2="8573.31" y2="479.086" gradientUnits="userSpaceOnUse">
<stop stop-color="#FFF200"/>
<stop offset="1" stop-color="#FFC60B"/>
</linearGradient>
</defs>
</svg>
