<svg width="106" height="48" viewBox="0 0 106 48" fill="none" xmlns="http://www.w3.org/2000/svg">
<path d="M34.0347 13.2559L24.7502 20.3511V47.9405H34.0347V13.2559Z" fill="url(#paint0_linear)"/>
<path d="M37.1302 7.21895L28.2335 0V14.4379L37.1302 7.21895Z" fill="url(#paint1_linear)"/>
<path d="M34.0378 13.2559L24.7549 20.3495L29.7825 31.4775C32.5579 27.1541 34.0378 20.9582 34.0378 13.2559Z" fill="#F6C024"/>
<path d="M24.7518 20.3495C24.7518 30.599 23.9779 38.4812 17.0145 38.4812C22.5546 38.4812 26.8796 36.0064 29.7812 31.4791" fill="url(#paint2_linear)"/>
<path d="M17.0161 38.4813C17.8858 38.4952 18.7506 38.3466 19.5677 38.0428C18.7474 38.3342 17.8848 38.4824 17.0161 38.4813Z" fill="#4B2C79"/>
<path d="M24.7518 36.469C22.5326 37.7891 19.943 38.4813 17.0161 38.4813C15.5797 38.4812 14.1716 38.0737 12.9496 37.3043C11.7276 36.535 10.7399 35.4343 10.0972 34.1253C9.45437 32.8164 9.18188 31.351 9.31018 29.8932C9.43849 28.4354 9.96254 27.0428 10.8236 25.8713C11.6847 24.6998 12.8489 23.7957 14.1857 23.2602C15.5226 22.7247 16.9793 22.579 18.3928 22.8393C19.8064 23.0997 21.1208 23.7559 22.1891 24.7343C23.2573 25.7128 24.0372 26.975 24.4413 28.3796C24.6903 25.9706 24.7565 23.2596 24.7565 20.3496L28.3186 17.6274C26.0022 15.5336 23.1693 14.1233 20.1248 13.5483C17.0802 12.9732 13.9394 13.2553 11.0405 14.364C8.14155 15.4727 5.59433 17.3661 3.67307 19.8404C1.7518 22.3147 0.529268 25.276 0.137092 28.4057C-0.255085 31.5354 0.197953 34.7148 1.44743 37.6015C2.6969 40.4883 4.69548 42.9732 7.22799 44.7885C9.76049 46.6039 12.731 47.681 15.8197 47.9039C18.9083 48.1268 21.9982 47.4871 24.7565 46.0535L24.7518 36.469Z" fill="#4B2C79"/>
<path d="M17.0161 22.7152C18.6882 22.7153 20.3153 23.2672 21.6538 24.2883C22.9924 25.3094 23.9703 26.7448 24.4413 28.3795C24.6903 25.9705 24.7565 23.2596 24.7565 20.3496L28.3186 17.6274C25.2058 14.8054 21.1826 13.2493 17.0161 13.2559V22.7152Z" fill="url(#paint3_linear)"/>
<path d="M42.5353 27.8431V23.3705H41.2398C41.2025 23.3734 41.1652 23.3656 41.132 23.348C41.0989 23.3304 41.0712 23.3037 41.0522 23.2709C41.0065 23.1706 40.9869 23.0599 40.9955 22.9497V22.6927C40.9876 22.5825 41.0072 22.472 41.0522 22.3715C41.0715 22.339 41.0992 22.3125 41.1323 22.2949C41.1654 22.2774 41.2026 22.2694 41.2398 22.2719H45.0916C45.1289 22.2692 45.1661 22.2771 45.1992 22.2947C45.2323 22.3123 45.26 22.3389 45.2792 22.3715C45.3242 22.472 45.3437 22.5825 45.3359 22.6927V22.9497C45.3444 23.0599 45.3249 23.1706 45.2792 23.2709C45.2603 23.3038 45.2327 23.3306 45.1995 23.3482C45.1663 23.3658 45.1289 23.3735 45.0916 23.3705H43.7977V27.8431C43.7977 28.0198 43.6401 28.1081 43.3091 28.1081H43.0223C42.6976 28.1049 42.5353 28.0198 42.5353 27.8431Z" fill="#4B2C79"/>
<path d="M46.3464 27.8432V22.5321C46.3464 22.3555 46.504 22.2672 46.835 22.2672H47.1203C47.4449 22.2672 47.6088 22.3555 47.6088 22.5321V24.583H49.7995V22.5321C49.7995 22.3555 49.9572 22.2672 50.2881 22.2672H50.5876C50.9138 22.2672 51.0761 22.3555 51.0761 22.5321V27.8432C51.0761 28.0198 50.9185 28.1082 50.5876 28.1082H50.3023C49.9776 28.1082 49.8137 28.0198 49.8137 27.8432V25.6783H47.6088V27.8432C47.6088 28.0198 47.4512 28.1082 47.1203 28.1082H46.835C46.5088 28.1049 46.3464 28.0198 46.3464 27.8432Z" fill="#4B2C79"/>
<path d="M52.3468 27.9267C52.3526 27.8758 52.3637 27.8258 52.3799 27.7773L54.1719 22.4422C54.2144 22.325 54.3689 22.2672 54.6352 22.2672H55.0592C55.3302 22.2672 55.4847 22.325 55.5225 22.4422L57.3145 27.7837C57.3293 27.8321 57.3372 27.8824 57.3381 27.9331C57.3381 28.0536 57.2026 28.1146 56.9315 28.1146H56.5769C56.3105 28.1146 56.1577 28.0568 56.1198 27.9411L55.7952 26.9294H53.8724L53.5477 27.9411C53.5099 28.0568 53.3901 28.1146 53.1726 28.1146H52.8464C52.5123 28.1049 52.3468 28.0471 52.3468 27.9267ZM55.4421 25.8276L54.9772 24.3501C54.9242 24.1762 54.8837 23.9985 54.8559 23.8185H54.8228C54.8228 23.8523 54.8054 23.9261 54.7865 24.0386C54.7695 24.1453 54.7409 24.2498 54.7014 24.3501L54.2207 25.8276H55.4421Z" fill="#4B2C79"/>
<path d="M58.511 27.8431V22.5321C58.511 22.3506 58.6686 22.2591 58.9996 22.2591H59.2848C59.6111 22.2591 59.7734 22.3506 59.7734 22.5321V27.8431C59.7734 28.0262 59.6158 28.1178 59.2848 28.1178H58.9996C58.6749 28.1178 58.511 28.0262 58.511 27.8431Z" fill="#4B2C79"/>
<path d="M62.2938 28.0134C62.2651 27.9784 62.2435 27.938 62.2302 27.8944C62.217 27.8508 62.2123 27.8051 62.2165 27.7597V22.5321C62.2165 22.3555 62.3741 22.2672 62.7051 22.2672H62.9825C63.3071 22.2672 63.4711 22.3555 63.4711 22.5321V27.0048H65.2299C65.2669 27.0021 65.304 27.0099 65.3369 27.0275C65.3697 27.0451 65.3971 27.0718 65.4159 27.1044C65.4621 27.2046 65.4822 27.3152 65.4742 27.4256V27.6826C65.4828 27.793 65.4626 27.9038 65.4159 28.0038C65.3971 28.0364 65.3697 28.0631 65.3369 28.0807C65.304 28.0983 65.2669 28.1061 65.2299 28.1033H62.5506C62.5041 28.1072 62.4572 28.1012 62.413 28.0858C62.3688 28.0703 62.3282 28.0456 62.2938 28.0134Z" fill="#4B2C79"/>
<path d="M66.0765 27.9267C66.0823 27.8758 66.0934 27.8258 66.1096 27.7773L67.9 22.4422C67.9441 22.325 68.0985 22.2672 68.3728 22.2672H68.7952C69.0678 22.2672 69.2223 22.325 69.2601 22.4422L71.0442 27.7837C71.059 27.8321 71.067 27.8824 71.0678 27.9331C71.0678 28.0536 70.9323 28.1146 70.6612 28.1146H70.3019C70.0371 28.1146 69.8842 28.0568 69.8464 27.9411L69.5201 26.9294H67.5989L67.2727 27.9411C67.2349 28.0568 67.1104 28.1146 66.8992 28.1146H66.5729C66.242 28.1049 66.0765 28.0471 66.0765 27.9267ZM69.1703 25.8276L68.7069 24.3501C68.654 24.176 68.6129 23.9984 68.584 23.8185H68.5556C68.5556 23.8523 68.5367 23.9261 68.5178 24.0386C68.5007 24.1453 68.4722 24.2498 68.4327 24.3501L67.952 25.8276H69.1703Z" fill="#4B2C79"/>
<path d="M71.9555 27.8432V22.5321C71.9555 22.3555 72.1131 22.2672 72.4441 22.2672H72.794C72.9045 22.2644 73.0147 22.2801 73.1202 22.3137C73.2091 22.3458 73.2839 22.409 73.3314 22.492L75.1643 25.3748C75.2711 25.5323 75.3689 25.6958 75.4575 25.8646L75.489 25.8566C75.478 25.7297 75.4732 25.5354 75.4732 25.2929V22.5321C75.4732 22.3555 75.6308 22.2672 75.9618 22.2672H76.1982C76.5245 22.2672 76.6868 22.3555 76.6868 22.5321V27.8432C76.6868 28.0198 76.5292 28.1082 76.1982 28.1082H75.883C75.7726 28.1114 75.6624 28.0962 75.5568 28.0632C75.4679 28.0311 75.3931 27.9679 75.3456 27.8849L73.4717 24.9636C73.3646 24.8064 73.2667 24.6428 73.1785 24.4738L73.147 24.4834C73.1565 24.6103 73.1628 24.8046 73.1628 25.0471V27.8432C73.1628 28.0198 73.0052 28.1082 72.6742 28.1082H72.4378C72.1178 28.105 71.9555 28.0198 71.9555 27.8432Z" fill="#4B2C79"/>
<path d="M78.7596 28.0134C78.7309 27.9784 78.7094 27.9379 78.6961 27.8944C78.6828 27.8508 78.6782 27.805 78.6824 27.7596V22.6205C78.6744 22.5751 78.6772 22.5285 78.6906 22.4845C78.7041 22.4406 78.7277 22.4006 78.7596 22.3679C78.7915 22.3353 78.8306 22.311 78.8737 22.297C78.9168 22.2831 78.9626 22.28 79.0071 22.288H80.7502C81.5907 22.288 82.2353 22.5386 82.684 23.0396C83.1326 23.5407 83.3564 24.2586 83.3554 25.1933C83.3554 26.1279 83.1316 26.8453 82.684 27.3453C82.2364 27.8453 81.5918 28.0958 80.7502 28.0969H79.0071C78.9624 28.1005 78.9176 28.095 78.8751 28.0806C78.8326 28.0663 78.7933 28.0434 78.7596 28.0134ZM80.7502 27.0048C80.9392 27.0167 81.1283 26.9805 81.3002 26.8995C81.4722 26.8185 81.6216 26.6952 81.7352 26.5407C81.9569 26.2313 82.0683 25.7805 82.0693 25.1884C82.0693 24.5958 81.9574 24.1462 81.7352 23.8362C81.6217 23.6815 81.4723 23.558 81.3004 23.4767C81.1284 23.3954 80.9394 23.3589 80.7502 23.3705H79.9432V27.0048H80.7502Z" fill="#4B2C79"/>
<path d="M40.9308 38.2066C40.9375 38.1471 40.9502 38.0884 40.9687 38.0316L43.0758 31.7569C43.1263 31.6204 43.3091 31.553 43.6212 31.553H44.1255C44.4407 31.553 44.6267 31.6204 44.6708 31.7569L46.778 38.0316C46.7957 38.0882 46.8053 38.1472 46.8063 38.2066C46.8063 38.3495 46.6487 38.4202 46.3335 38.4202H45.9127C45.5975 38.4202 45.421 38.3528 45.3769 38.2163L44.9939 37.0262H42.7212L42.3383 38.2227C42.2941 38.3592 42.1476 38.4266 41.8985 38.4266H41.5156C41.131 38.4202 40.9308 38.3495 40.9308 38.2066ZM44.5684 35.7382L44.023 34.0021C43.9609 33.7976 43.9129 33.5888 43.8796 33.3774H43.8418C43.8418 33.4159 43.8213 33.5027 43.7977 33.636C43.7778 33.7613 43.7445 33.8841 43.6984 34.0021L43.1326 35.7382H44.5684Z" fill="#4B2C79"/>
<path d="M48.657 38.1086V31.8645C48.657 31.6509 48.8493 31.5433 49.2323 31.5433H49.568C49.9494 31.5433 50.1417 31.6509 50.1417 31.8645V38.1086C50.1417 38.3238 49.9494 38.4298 49.568 38.4298H49.2323C48.854 38.4315 48.657 38.3238 48.657 38.1086Z" fill="#4B2C79"/>
<path d="M54.67 38.1087V31.9593C54.6609 31.8519 54.6938 31.7451 54.7614 31.6622C54.8015 31.6277 54.8479 31.6016 54.898 31.5856C54.9481 31.5697 55.0007 31.564 55.053 31.569H56.9206C58.5093 31.569 59.3041 32.1804 59.3052 33.4031C59.3122 33.7457 59.2055 34.0807 59.0026 34.3538C58.7931 34.6309 58.5088 34.8396 58.1846 34.9545V34.993C58.3358 35.0629 58.4651 35.1741 58.5581 35.3142C58.6875 35.4892 58.7935 35.6809 58.8733 35.8844L59.7165 38.0316C59.7419 38.0901 59.7579 38.1525 59.7638 38.2163C59.7638 38.2757 59.7165 38.3223 59.6204 38.3576C59.4807 38.3989 59.3354 38.4168 59.1901 38.4106H58.7977C58.4825 38.4106 58.2996 38.3431 58.2413 38.2066L57.4848 36.3035C57.4055 36.1266 57.2862 35.9714 57.1365 35.8506C56.9473 35.7471 56.7328 35.7013 56.5187 35.7189H56.1452V38.099C56.1452 38.3078 55.9529 38.4106 55.5699 38.4106H55.2453C54.8623 38.4202 54.67 38.3174 54.67 38.1087ZM57.0498 34.4309C57.1482 34.4305 57.2452 34.4085 57.3344 34.3663C57.4236 34.3242 57.5029 34.263 57.5668 34.1868C57.7134 34.0249 57.7925 33.8112 57.7874 33.591C57.7919 33.4902 57.7749 33.3897 57.7377 33.2963C57.7004 33.2029 57.6437 33.1188 57.5715 33.0498C57.4071 32.9093 57.1963 32.838 56.9821 32.8506H56.1405V34.4309H57.0498Z" fill="#4B2C79"/>
<path d="M61.9139 38.3094C61.8801 38.2682 61.8547 38.2206 61.839 38.1694C61.8233 38.1181 61.8177 38.0642 61.8225 38.0107V31.9593C61.813 31.9059 61.8163 31.851 61.8322 31.7992C61.8481 31.7474 61.876 31.7003 61.9137 31.662C61.9513 31.6236 61.9975 31.5951 62.0484 31.5789C62.0992 31.5628 62.1531 31.5594 62.2055 31.5691H65.5609C65.6048 31.5654 65.6488 31.5745 65.6878 31.5952C65.7269 31.6159 65.7594 31.6475 65.7815 31.6863C65.8341 31.8023 65.8574 31.9298 65.8493 32.0573V32.3592C65.8571 32.4867 65.8338 32.6141 65.7815 32.7302C65.7591 32.7687 65.7266 32.8001 65.6876 32.8208C65.6486 32.8415 65.6047 32.8507 65.5609 32.8474H63.2977V34.2623H65.3071C65.351 34.2586 65.395 34.2677 65.4341 34.2885C65.4731 34.3092 65.5056 34.3408 65.5278 34.3796C65.5803 34.495 65.6036 34.622 65.5956 34.7489V35.0525C65.6033 35.1799 65.5801 35.3074 65.5278 35.4235C65.5053 35.4618 65.4727 35.493 65.4337 35.5134C65.3947 35.5338 65.3509 35.5427 65.3071 35.5391H63.2977V37.121H65.5766C65.6201 37.1177 65.6636 37.1267 65.7023 37.1471C65.741 37.1676 65.7733 37.1985 65.7957 37.2366C65.848 37.3527 65.8713 37.4801 65.8635 37.6076V37.9111C65.8713 38.0386 65.848 38.1661 65.7957 38.2821C65.7733 38.3202 65.741 38.3512 65.7023 38.3716C65.6636 38.392 65.6201 38.4011 65.5766 38.3978H62.2055C62.1007 38.4084 61.996 38.3767 61.9139 38.3094Z" fill="#4B2C79"/>
<path d="M68.6503 38.3431C68.3662 38.2762 68.0964 38.157 67.8544 37.9914C67.6763 37.8678 67.5864 37.7441 67.5864 37.6204C67.5939 37.4968 67.6301 37.3768 67.692 37.2703C67.7588 37.1391 67.8425 37.0175 67.941 36.909C68.0372 36.8046 68.116 36.7484 68.1806 36.7484C68.2759 36.7712 68.3666 36.8109 68.4485 36.8656C68.6286 36.9579 68.8139 37.0394 69.0033 37.1097C69.1922 37.171 69.3898 37.2003 69.588 37.1964C69.8074 37.2022 70.0245 37.1502 70.2184 37.0455C70.307 36.9912 70.3787 36.9124 70.4253 36.8184C70.4718 36.7243 70.4914 36.6188 70.4816 36.5139C70.4845 36.4175 70.4637 36.3218 70.421 36.2357C70.3783 36.1496 70.3152 36.0757 70.2373 36.0209C69.9906 35.856 69.7262 35.7202 69.4493 35.6161L69.008 35.4218C68.6435 35.2543 68.3204 35.0057 68.0624 34.6943C67.8323 34.4052 67.7172 33.9936 67.7172 33.4593C67.7013 33.0653 67.812 32.6768 68.0324 32.3528C68.2446 32.0581 68.5349 31.8313 68.8693 31.6991C69.2231 31.5575 69.6003 31.4861 69.9804 31.4887C70.2787 31.486 70.5762 31.5205 70.8662 31.5915C71.0905 31.6414 71.3041 31.7323 71.4966 31.8597C71.5544 31.8922 71.6038 31.9383 71.6405 31.9941C71.6773 32.05 71.7003 32.1141 71.7078 32.1809C71.7005 32.299 71.6711 32.4146 71.6211 32.5214C71.568 32.65 71.4968 32.7701 71.4099 32.8779C71.3845 32.9185 71.3508 32.953 71.3111 32.979C71.2713 33.0051 71.2266 33.0221 71.1798 33.0289C71.1249 33.0223 71.0716 33.006 71.0222 32.9807C70.9497 32.9486 70.8867 32.9213 70.8362 32.902C70.6043 32.8241 70.3617 32.7845 70.1176 32.7848C69.7866 32.7848 69.5549 32.841 69.4241 32.9454C69.3646 32.9889 69.3158 33.046 69.2816 33.112C69.2474 33.1781 69.2287 33.2513 69.2271 33.326C69.2215 33.478 69.2689 33.6271 69.361 33.7468C69.4512 33.8574 69.5621 33.9485 69.6873 34.015C69.815 34.0824 70.0025 34.1756 70.2515 34.2832C70.5579 34.4101 70.8554 34.5582 71.142 34.7264C71.3843 34.8791 71.5891 35.0862 71.7409 35.3319C71.9207 35.636 72.0089 35.9873 71.9946 36.3421C72.0117 36.7744 71.9019 37.2021 71.6794 37.5706C71.4865 37.8772 71.2083 38.1182 70.8804 38.2628C70.5477 38.4076 70.1893 38.4809 69.8276 38.478C69.4311 38.4845 69.0354 38.4391 68.6503 38.3431Z" fill="#4B2C79"/>
<path d="M74.2298 38.3094C74.1623 38.2258 74.1295 38.1186 74.1384 38.0107V31.9593C74.1293 31.8519 74.1621 31.7451 74.2298 31.6622C74.27 31.6278 74.3164 31.6019 74.3664 31.5859C74.4165 31.5699 74.4691 31.5642 74.5214 31.5691H77.8831C77.9267 31.5655 77.9705 31.5746 78.0093 31.5954C78.048 31.6161 78.0802 31.6477 78.1022 31.6863C78.1555 31.802 78.1789 31.9297 78.1699 32.0573V32.3592C78.1785 32.4867 78.1552 32.6144 78.1022 32.7302C78.08 32.7686 78.0477 32.7999 78.009 32.8206C77.9703 32.8413 77.9267 32.8506 77.8831 32.8474H75.6136V34.2623H77.6246C77.6682 34.2589 77.7119 34.2682 77.7507 34.2889C77.7894 34.3096 77.8216 34.341 77.8437 34.3795C77.8969 34.4948 77.9202 34.6219 77.9115 34.7489V35.0525C77.92 35.18 77.8967 35.3076 77.8437 35.4234C77.8213 35.4615 77.7889 35.4925 77.7502 35.5129C77.7116 35.5334 77.6681 35.5424 77.6246 35.5391H75.6104V37.121H77.8894C77.9331 37.1175 77.9768 37.1265 78.0158 37.1469C78.0548 37.1673 78.0874 37.1984 78.11 37.2366C78.1616 37.3529 78.1844 37.4803 78.1762 37.6076V37.9111C78.1844 38.0385 78.1616 38.1659 78.11 38.2821C78.0874 38.3203 78.0548 38.3514 78.0158 38.3718C77.9768 38.3922 77.9331 38.4012 77.8894 38.3977H74.5182C74.4145 38.4073 74.3111 38.3757 74.2298 38.3094Z" fill="#4B2C79"/>
<path d="M79.4973 38.2066C79.504 38.1469 79.5172 38.0882 79.5367 38.0316L81.6376 31.7569C81.688 31.6204 81.8708 31.553 82.1829 31.553H82.6809C82.9961 31.553 83.1821 31.6204 83.2278 31.7569L85.3334 38.0316C85.3512 38.0882 85.3607 38.1472 85.3618 38.2066C85.3618 38.3495 85.2042 38.4202 84.889 38.4202H84.4745C84.1593 38.4202 83.9827 38.3528 83.9386 38.2163L83.5556 37.0262H81.2877L80.9047 38.2227C80.8606 38.3592 80.714 38.4266 80.465 38.4266H80.082C79.6927 38.4202 79.4973 38.3495 79.4973 38.2066ZM83.1364 35.7382L82.5911 34.0021C82.5282 33.7977 82.4798 33.5889 82.4461 33.3774H82.4083L82.3657 33.636C82.3446 33.7612 82.3108 33.8839 82.2649 34.0021L81.7006 35.7382H83.1364Z" fill="#4B2C79"/>
<path d="M86.8893 38.1087V31.9593C86.8798 31.9059 86.8831 31.851 86.899 31.7992C86.9149 31.7474 86.9429 31.7003 86.9805 31.662C87.0182 31.6236 87.0644 31.5951 87.1152 31.5789C87.166 31.5628 87.2199 31.5594 87.2723 31.5691H89.1399C90.7286 31.5691 91.5229 32.1804 91.5229 33.4031C91.5304 33.7455 91.4243 34.0805 91.2219 34.3539C91.0117 34.6302 90.7277 34.8388 90.4039 34.9545V34.993C90.5546 35.0631 90.6834 35.1742 90.7759 35.3142C90.9046 35.4896 91.0106 35.6813 91.0911 35.8844L91.9343 38.0316C91.9597 38.0902 91.9756 38.1525 91.9815 38.2163C91.9815 38.2757 91.9342 38.3223 91.8381 38.3576C91.6979 38.399 91.5521 38.4169 91.4063 38.4106H91.0154C90.7002 38.4106 90.519 38.3432 90.4607 38.2066L89.7042 36.3035C89.6244 36.1265 89.5045 35.9712 89.3543 35.8506C89.1658 35.7467 88.9516 35.7009 88.738 35.719H88.3645V38.099C88.3645 38.3078 88.1722 38.4106 87.7893 38.4106H87.4693C87.0816 38.4202 86.8893 38.3175 86.8893 38.1087ZM89.2739 34.4309C89.3722 34.4305 89.4693 34.4085 89.5585 34.3664C89.6477 34.3242 89.7269 34.263 89.7908 34.1868C89.9374 34.0249 90.0165 33.8113 90.0115 33.591C90.016 33.4903 89.999 33.3897 89.9617 33.2963C89.9244 33.2029 89.8678 33.1188 89.7956 33.0498C89.6312 32.9093 89.4203 32.838 89.2061 32.8507H88.3645V34.4309H89.2739Z" fill="#4B2C79"/>
<path d="M94.1332 37.6253C93.6194 37.0568 93.3625 36.1708 93.3625 34.9674C93.3625 32.6515 94.4285 31.4936 96.5603 31.4936C96.8881 31.4951 97.2148 31.5295 97.5359 31.5964C97.8068 31.6429 98.0686 31.7335 98.3113 31.8646C98.4784 31.9625 98.5603 32.0669 98.5603 32.1858C98.5509 32.3103 98.5154 32.4313 98.4563 32.5407C98.3885 32.6789 98.3032 32.8074 98.2026 32.9229C98.1721 32.9683 98.1329 33.0069 98.0874 33.0364C98.0419 33.0659 97.991 33.0858 97.9378 33.0948C97.8592 33.0723 97.7827 33.0427 97.7093 33.0064C97.5515 32.9381 97.388 32.8843 97.2207 32.8458C96.9939 32.7966 96.7623 32.7735 96.5304 32.7768C95.9693 32.7768 95.5532 32.9599 95.2822 33.3228C95.0111 33.6858 94.8771 34.2415 94.8771 34.977C94.8771 36.4599 95.423 37.2013 96.5146 37.2013C96.7663 37.2056 97.0174 37.1765 97.2617 37.1146C97.4715 37.056 97.6765 36.9808 97.8748 36.8897C97.9395 36.8498 98.0112 36.8231 98.086 36.811C98.1403 36.8152 98.1931 36.8318 98.2403 36.8596C98.2875 36.8874 98.3279 36.9257 98.3586 36.9716C98.4461 37.0858 98.5167 37.2124 98.5682 37.3475C98.6126 37.4447 98.6403 37.549 98.6502 37.6558C98.6502 37.825 98.5383 37.9743 98.3145 38.1039C98.055 38.2449 97.7734 38.3389 97.4823 38.3817C97.1631 38.4417 96.8393 38.4729 96.5146 38.4749C95.4408 38.4781 94.647 38.1949 94.1332 37.6253Z" fill="#4B2C79"/>
<path d="M100.447 38.1087V31.8645C100.447 31.6574 100.64 31.553 101.021 31.553H101.357C101.74 31.553 101.932 31.6574 101.932 31.8645V34.2735H104.517V31.8645C104.517 31.6574 104.707 31.553 105.09 31.553H105.426C105.809 31.553 106 31.6574 106 31.8645V38.1087C106 38.3174 105.809 38.4202 105.426 38.4202H105.09C104.707 38.4202 104.517 38.3174 104.517 38.1087V35.5631H101.932V38.1087C101.932 38.3174 101.74 38.4202 101.357 38.4202H101.024C100.64 38.4202 100.447 38.3174 100.447 38.1087Z" fill="#4B2C79"/>
<path d="M41.4462 47.6836V42.3742C41.4462 42.1911 41.6038 42.0995 41.9348 42.0995H42.2185C42.5447 42.0995 42.7071 42.1911 42.7071 42.3742V47.6836C42.7071 47.8667 42.5495 47.9582 42.2185 47.9582H41.9348C41.6149 47.9582 41.4462 47.8667 41.4462 47.6836Z" fill="#4B2C79"/>
<path d="M44.6111 47.6836V42.3742C44.6111 42.1959 44.7687 42.1076 45.0997 42.1076H45.4495C45.5601 42.1048 45.6703 42.1206 45.7758 42.1542C45.8646 42.1863 45.9395 42.2495 45.987 42.3324L47.8199 45.212C47.9264 45.3669 48.0243 45.5277 48.1131 45.6938L48.1446 45.6858C48.1335 45.5589 48.1288 45.3646 48.1288 45.1221V42.3742C48.1288 42.1959 48.2864 42.1076 48.6174 42.1076H48.8538C49.18 42.1076 49.3424 42.1959 49.3424 42.3742V47.6836C49.3424 47.8619 49.1848 47.9502 48.8538 47.9502H48.5386C48.4281 47.953 48.3179 47.9373 48.2123 47.9036C48.1235 47.8715 48.0487 47.8084 48.0012 47.7254L46.1335 44.8073C46.0267 44.6527 45.9288 44.4918 45.8404 44.3255L45.8089 44.3335C45.8199 44.4604 45.8246 44.6547 45.8246 44.8972V47.6933C45.8246 47.8715 45.667 47.9599 45.3361 47.9599H45.0997C44.775 47.9502 44.6111 47.8587 44.6111 47.6836Z" fill="#4B2C79"/>
<path d="M51.4767 47.8828C51.2351 47.8268 51.0058 47.7255 50.8006 47.5841C50.643 47.4797 50.5721 47.3737 50.5721 47.2629C50.5783 47.1574 50.6091 47.055 50.6619 46.9641C50.7188 46.8529 50.7898 46.7498 50.8731 46.6574C50.9551 46.5691 51.0228 46.5241 51.0764 46.5241C51.1576 46.5439 51.2349 46.5775 51.3049 46.6237C51.4579 46.7032 51.6159 46.7724 51.7778 46.8309C51.9379 46.8841 52.1058 46.9096 52.2742 46.9063C52.4623 46.9119 52.6485 46.8676 52.8148 46.7779C52.89 46.7312 52.951 46.6641 52.9908 46.5841C53.0306 46.5041 53.0477 46.4143 53.0402 46.325C53.0426 46.243 53.0248 46.1616 52.9885 46.0884C52.9521 46.0152 52.8984 45.9524 52.8321 45.9058C52.6218 45.7658 52.3966 45.6505 52.1607 45.5621L51.7856 45.4015C51.4746 45.2603 51.1988 45.0495 50.9787 44.7848C50.7659 44.4792 50.6624 44.1085 50.6856 43.7345C50.6737 43.3989 50.7694 43.0686 50.9582 42.7934C51.1398 42.5427 51.3873 42.3495 51.6722 42.2361C51.9732 42.1154 52.2943 42.0549 52.6178 42.0578C52.8716 42.0548 53.1247 42.0844 53.3711 42.1462C53.561 42.1881 53.7416 42.2654 53.9038 42.3742C53.9522 42.4008 53.9937 42.4387 54.0249 42.4847C54.0561 42.5308 54.0762 42.5837 54.0835 42.6392C54.0776 42.7401 54.0525 42.8388 54.0094 42.9299C53.9645 43.0387 53.9046 43.1404 53.8313 43.2318C53.8098 43.2663 53.7811 43.2956 53.7474 43.3178C53.7137 43.34 53.6756 43.3545 53.6359 43.3603C53.5887 43.3553 53.5428 43.3417 53.5004 43.3201C53.4389 43.2912 53.3853 43.2704 53.3428 43.2527C53.1455 43.1864 52.939 43.1527 52.7313 43.1531C52.5249 43.1331 52.3178 43.1828 52.1418 43.2944C52.0918 43.3315 52.0508 43.3797 52.0219 43.4354C51.9929 43.491 51.9768 43.5527 51.9748 43.6156C51.9701 43.7444 52.0103 43.8707 52.0882 43.9722C52.1648 44.0664 52.2591 44.1439 52.3656 44.2002C52.4744 44.258 52.6336 44.3335 52.8384 44.4283C53.0992 44.5365 53.3525 44.6626 53.5965 44.8057C53.8027 44.9349 53.9769 45.1107 54.1056 45.3196C54.2583 45.5784 54.3334 45.8771 54.3215 46.1788C54.3367 46.5463 54.2446 46.9102 54.0567 47.2243C53.8921 47.4852 53.6551 47.6904 53.3759 47.8137C53.0931 47.9371 52.7883 47.9994 52.4807 47.9968C52.1426 48.0024 51.8053 47.9641 51.4767 47.8828Z" fill="#4B2C79"/>
<path d="M56.4762 47.6836V43.211H55.1807C55.1436 43.2141 55.1064 43.2064 55.0734 43.1888C55.0405 43.1712 55.0132 43.1443 54.9947 43.1114C54.9477 43.0115 54.9276 42.9006 54.9364 42.7902V42.5332C54.9276 42.4228 54.9477 42.3119 54.9947 42.212C55.0132 42.1791 55.0405 42.1522 55.0734 42.1346C55.1064 42.117 55.1436 42.1093 55.1807 42.1125H59.0325C59.0698 42.1094 59.1072 42.1171 59.1404 42.1347C59.1736 42.1523 59.2012 42.1791 59.2201 42.212C59.2658 42.3123 59.2853 42.423 59.2768 42.5332V42.7902C59.2853 42.9004 59.2658 43.0111 59.2201 43.1114C59.2012 43.1443 59.1736 43.1711 59.1404 43.1887C59.1072 43.2063 59.0698 43.214 59.0325 43.211H57.7386V47.6836C57.7386 47.8619 57.581 47.9502 57.25 47.9502H56.9648C56.6385 47.9502 56.4762 47.8587 56.4762 47.6836Z" fill="#4B2C79"/>
<path d="M60.5175 47.6836V42.3742C60.5175 42.1911 60.6751 42.0995 61.006 42.0995H61.2913C61.6175 42.0995 61.7799 42.1911 61.7799 42.3742V47.6836C61.7799 47.8667 61.6223 47.9582 61.2913 47.9582H61.006C60.6751 47.9582 60.5175 47.8667 60.5175 47.6836Z" fill="#4B2C79"/>
<path d="M64.5539 47.6836V43.211H63.2584C63.2213 43.2141 63.1841 43.2064 63.1511 43.1888C63.1182 43.1712 63.0909 43.1443 63.0724 43.1114C63.0254 43.0115 63.0053 42.9006 63.0141 42.7902V42.5332C63.0053 42.4228 63.0254 42.3119 63.0724 42.212C63.0909 42.1791 63.1182 42.1522 63.1511 42.1346C63.1841 42.117 63.2213 42.1093 63.2584 42.1125H67.1102C67.1475 42.1094 67.1849 42.1171 67.2181 42.1347C67.2513 42.1523 67.2789 42.1791 67.2978 42.212C67.3435 42.3123 67.3631 42.423 67.3545 42.5332V42.7902C67.3631 42.9004 67.3435 43.0111 67.2978 43.1114C67.2789 43.1443 67.2513 43.1711 67.2181 43.1887C67.1849 43.2063 67.1475 43.214 67.1102 43.211H65.8163V47.6836C65.8163 47.8619 65.6587 47.9502 65.3277 47.9502H65.0425C64.7162 47.9502 64.5539 47.8587 64.5539 47.6836Z" fill="#4B2C79"/>
<path d="M68.9671 47.4732C68.5542 47.1221 68.3477 46.6279 68.3477 45.9909V42.3742C68.3477 42.1959 68.5053 42.1076 68.8363 42.1076H69.1137C69.4399 42.1076 69.6023 42.1959 69.6023 42.3742V45.9074C69.5996 46.0438 69.6264 46.1791 69.6809 46.3038C69.7354 46.4284 69.8161 46.5393 69.9175 46.6285C70.1392 46.8222 70.4247 46.9232 70.7165 46.9111C71.0092 46.9225 71.2954 46.8216 71.5187 46.6285C71.6204 46.5396 71.7014 46.4288 71.7559 46.3041C71.8104 46.1794 71.8371 46.0439 71.8339 45.9074V42.3742C71.8339 42.1959 71.9915 42.1076 72.3225 42.1076H72.5904C72.9167 42.1076 73.079 42.1959 73.079 42.3742V45.9909C73.079 46.6269 72.8725 47.121 72.4596 47.4732C72.0467 47.8255 71.4662 48.0011 70.7181 48C69.9626 48 69.379 47.8244 68.9671 47.4732Z" fill="#4B2C79"/>
<path d="M75.6041 47.6836V43.2109H74.3086C74.2713 43.2138 74.234 43.206 74.2009 43.1884C74.1677 43.1708 74.1401 43.1441 74.1211 43.1114C74.0753 43.011 74.0558 42.9004 74.0643 42.7902V42.5332C74.0558 42.4229 74.0753 42.3123 74.1211 42.212C74.1401 42.1792 74.1677 42.1525 74.2009 42.1349C74.234 42.1173 74.2713 42.1095 74.3086 42.1124H78.1605C78.1977 42.1093 78.2351 42.117 78.2683 42.1347C78.3015 42.1523 78.3291 42.1791 78.348 42.212C78.3937 42.3123 78.4133 42.4229 78.4047 42.5332V42.7902C78.4133 42.9004 78.3937 43.011 78.348 43.1114C78.3291 43.1443 78.3015 43.1711 78.2683 43.1887C78.2351 43.2063 78.1977 43.214 78.1605 43.2109H76.8665V47.6836C76.8665 47.8619 76.7089 47.9502 76.378 47.9502H76.0927C75.7665 47.9502 75.6041 47.8587 75.6041 47.6836Z" fill="#4B2C79"/>
<path d="M79.3287 47.8587C79.2718 47.788 79.2441 47.6976 79.2514 47.6065V42.4673C79.2432 42.4219 79.246 42.3751 79.2595 42.331C79.273 42.287 79.2969 42.2469 79.329 42.2143C79.3611 42.1817 79.4006 42.1576 79.4439 42.1441C79.4872 42.1305 79.5332 42.1279 79.5777 42.1365H82.4351C82.4724 42.1334 82.5098 42.1411 82.5429 42.1587C82.5761 42.1763 82.6037 42.2032 82.6226 42.2361C82.6684 42.3364 82.6879 42.447 82.6794 42.5573V42.8142C82.6879 42.9245 82.6684 43.0351 82.6226 43.1354C82.6037 43.1683 82.5761 43.1952 82.5429 43.2128C82.5098 43.2304 82.4724 43.2381 82.4351 43.235H80.506V44.4395H82.216C82.2533 44.4364 82.2907 44.4441 82.3239 44.4617C82.357 44.4793 82.3847 44.5061 82.4035 44.5391C82.4493 44.6394 82.4688 44.75 82.4603 44.8603V45.1172C82.4688 45.2275 82.4493 45.3381 82.4035 45.4384C82.3847 45.4713 82.357 45.4982 82.3239 45.5158C82.2907 45.5334 82.2533 45.5411 82.216 45.538H80.506V46.8822H82.4445C82.4816 46.8794 82.5186 46.8873 82.5515 46.9049C82.5844 46.9225 82.6117 46.9491 82.6305 46.9818C82.6768 47.0819 82.6969 47.1926 82.6888 47.303V47.5599C82.6974 47.6704 82.6773 47.7811 82.6305 47.8811C82.612 47.9141 82.5847 47.9409 82.5518 47.9586C82.5188 47.9762 82.4816 47.9839 82.4445 47.9807H79.5777C79.5301 47.9791 79.4834 47.9675 79.4405 47.9465C79.3977 47.9254 79.3596 47.8955 79.3287 47.8587Z" fill="#4B2C79"/>
<path d="M42.7906 18.9732L41.0333 13.6381C41.0171 13.5896 41.006 13.5396 41.0002 13.4887C41.0002 13.3667 41.1657 13.3057 41.4966 13.3057H41.7614C42.0325 13.3057 42.1917 13.386 42.2342 13.5466L43.3375 17.1392L43.4273 17.4299H43.4588L43.5486 17.1392L44.6802 13.5466C44.7354 13.386 44.8946 13.3057 45.1609 13.3057H45.4131C45.7393 13.3057 45.9017 13.3667 45.9017 13.4887C45.8999 13.5393 45.8919 13.5895 45.878 13.6381L44.1255 18.9732C44.0877 19.0889 43.9348 19.1483 43.67 19.1483H43.246C42.9813 19.1483 42.83 19.0889 42.7906 18.9732Z" fill="#A11C39"/>
<path d="M47.3189 18.8817V13.5723C47.3189 13.3892 47.4765 13.2977 47.8075 13.2977H48.0927C48.419 13.2977 48.5813 13.3892 48.5813 13.5723V18.8817C48.5813 19.0648 48.4237 19.1563 48.0927 19.1563H47.8075C47.4812 19.1563 47.3189 19.0648 47.3189 18.8817Z" fill="#A11C39"/>
<path d="M50.9991 19.0808C50.7577 19.0243 50.5286 18.923 50.323 18.7821C50.1654 18.6777 50.0961 18.5717 50.0961 18.4609C50.1023 18.3555 50.1331 18.2531 50.1859 18.1622C50.2417 18.0503 50.3128 17.947 50.3971 17.8555C50.479 17.7671 50.5468 17.7222 50.6004 17.7222C50.6816 17.7419 50.7588 17.7756 50.8289 17.8217C50.9821 17.901 51.14 17.9702 51.3017 18.0289C51.4625 18.082 51.6308 18.1075 51.7998 18.1044C51.9878 18.1097 52.174 18.0655 52.3403 17.9759C52.4153 17.9291 52.4759 17.8619 52.5154 17.7819C52.555 17.7019 52.5718 17.6123 52.5641 17.523C52.5666 17.441 52.5488 17.3597 52.5125 17.2865C52.4761 17.2133 52.4224 17.1505 52.3561 17.1039C52.1478 16.9658 51.9247 16.8527 51.691 16.7666L51.3175 16.606C51.0065 16.4648 50.7307 16.254 50.5106 15.9893C50.2942 15.6839 50.1879 15.3118 50.2095 14.9358C50.1977 14.6002 50.2934 14.2698 50.4822 13.9947C50.6627 13.7436 50.9099 13.5503 51.1946 13.4374C51.4957 13.317 51.8167 13.2565 52.1402 13.2591C52.3934 13.2561 52.646 13.2858 52.892 13.3474C53.0814 13.3889 53.2619 13.465 53.4247 13.5723C53.4728 13.5992 53.514 13.6371 53.5452 13.6831C53.5764 13.7291 53.5966 13.7819 53.6043 13.8373C53.5983 13.9381 53.5731 14.0368 53.5303 14.128C53.4854 14.2371 53.4249 14.3389 53.3506 14.4299C53.3292 14.4645 53.3006 14.494 53.2668 14.5161C53.2331 14.5383 53.1949 14.5527 53.1552 14.5584C53.1085 14.5531 53.0632 14.5395 53.0212 14.5182C52.9582 14.4893 52.9061 14.4684 52.8636 14.4508C52.6668 14.3844 52.4609 14.3508 52.2537 14.3512C52.0468 14.3316 51.8393 14.3812 51.6627 14.4925C51.6129 14.5298 51.5721 14.5781 51.5432 14.6337C51.5143 14.6893 51.498 14.7508 51.4956 14.8137C51.4907 14.9428 51.5315 15.0693 51.6106 15.1703C51.6866 15.2644 51.7804 15.342 51.8864 15.3983C51.9952 15.4561 52.156 15.5316 52.3671 15.6264C52.6279 15.7346 52.8812 15.8607 53.1252 16.0038C53.3309 16.1336 53.5049 16.3094 53.6343 16.5177C53.7865 16.7766 53.861 17.0753 53.8486 17.3769C53.8636 17.7442 53.772 18.1078 53.5854 18.4224C53.4208 18.6833 53.1838 18.8885 52.9046 19.0118C52.6217 19.135 52.317 19.1974 52.0094 19.1949C51.6692 19.2008 51.3297 19.1625 50.9991 19.0808Z" fill="#A11C39"/>
<path d="M56.4068 18.8817V14.409H55.1113C55.0742 14.4122 55.037 14.4045 55.0041 14.3868C54.9711 14.3692 54.9438 14.3423 54.9253 14.3094C54.8783 14.2095 54.8582 14.0987 54.867 13.9882V13.7313C54.8582 13.6208 54.8783 13.51 54.9253 13.4101C54.9462 13.3807 54.9746 13.3577 55.0073 13.3435C55.0401 13.3294 55.0761 13.3246 55.1113 13.3298H58.9632C59.0004 13.3267 59.0378 13.3344 59.071 13.352C59.1042 13.3696 59.1318 13.3964 59.1507 13.4293C59.1964 13.5296 59.216 13.6403 59.2074 13.7505V14.0075C59.216 14.1178 59.1964 14.2284 59.1507 14.3287C59.1318 14.3616 59.1042 14.3884 59.071 14.406C59.0378 14.4237 59.0004 14.4314 58.9632 14.4283H57.6692V18.901C57.6692 19.0776 57.5116 19.1676 57.1806 19.1676H56.8922C56.577 19.1483 56.4068 19.0584 56.4068 18.8817Z" fill="#A11C39"/>
<path d="M60.7839 19.0519C60.7553 19.0171 60.7338 18.977 60.7205 18.9337C60.7073 18.8904 60.7026 18.8449 60.7066 18.7998V13.6509C60.7002 13.6064 60.7043 13.5609 60.7185 13.5183C60.7327 13.4756 60.7566 13.4371 60.7883 13.4057C60.82 13.3743 60.8586 13.3511 60.9008 13.3379C60.9431 13.3247 60.9878 13.3219 61.0313 13.3297H63.8903C63.9275 13.3266 63.9649 13.3344 63.9981 13.352C64.0313 13.3696 64.0589 13.3964 64.0778 13.4293C64.1235 13.5296 64.1431 13.6403 64.1345 13.7505V14.0075C64.1431 14.1177 64.1235 14.2284 64.0778 14.3287C64.0589 14.3616 64.0313 14.3884 63.9981 14.406C63.9649 14.4236 63.9275 14.4313 63.8903 14.4282H61.9596V15.6327H63.6696C63.7069 15.6296 63.7443 15.6373 63.7775 15.655C63.8107 15.6726 63.8383 15.6994 63.8572 15.7323C63.9029 15.8326 63.9224 15.9432 63.9139 16.0535V16.3105C63.9224 16.4207 63.9029 16.5314 63.8572 16.6317C63.8348 16.6593 63.8057 16.6804 63.7727 16.6928C63.7398 16.7052 63.7042 16.7085 63.6696 16.7023H61.9596V18.0465H63.8981C63.9354 18.0438 63.9726 18.0517 64.0057 18.0693C64.0389 18.0869 64.0665 18.1135 64.0857 18.1461C64.1308 18.2466 64.1503 18.3571 64.1424 18.4673V18.7243C64.1505 18.8345 64.131 18.945 64.0857 19.0455C64.0668 19.0784 64.0392 19.1052 64.006 19.1228C63.9728 19.1404 63.9354 19.1481 63.8981 19.1451H61.0313C60.986 19.1474 60.9408 19.1403 60.8982 19.1243C60.8557 19.1083 60.8168 19.0836 60.7839 19.0519Z" fill="#A11C39"/>
<path d="M66.3696 18.4689C65.9357 17.9871 65.7187 17.2344 65.7187 16.2109C65.7187 14.2409 66.6254 13.2559 68.4389 13.2559C68.718 13.2564 68.9963 13.286 69.2695 13.3442C69.4998 13.3834 69.7223 13.4604 69.9283 13.5722C70.0701 13.6541 70.1395 13.7425 70.1395 13.8372C70.132 13.9437 70.1019 14.0473 70.0512 14.1408C69.994 14.2603 69.9213 14.3716 69.8353 14.4716C69.8096 14.5101 69.7765 14.5429 69.7381 14.568C69.6996 14.5931 69.6566 14.61 69.6115 14.6177C69.5441 14.5991 69.4787 14.5739 69.4161 14.5423C69.2812 14.4863 69.142 14.4418 69 14.409C68.8073 14.3673 68.6107 14.3479 68.4137 14.3511C67.9367 14.3511 67.5826 14.5064 67.3515 14.8169C67.1214 15.1268 67.0047 15.5942 67.0047 16.2189C67.0047 17.4802 67.4691 18.1108 68.398 18.1108C68.6104 18.1138 68.8224 18.0884 69.0284 18.0353C69.2071 17.9863 69.3816 17.9224 69.55 17.8442C69.6049 17.8113 69.6653 17.789 69.7281 17.7783C69.7749 17.7818 69.8203 17.7963 69.8605 17.8209C69.9007 17.8454 69.9348 17.8793 69.9598 17.9197C70.0356 18.0166 70.0962 18.125 70.1395 18.2409C70.1766 18.3236 70.2 18.4121 70.2088 18.5026C70.2088 18.6456 70.1143 18.7725 69.9236 18.8833C69.7031 19.0037 69.4636 19.0836 69.2159 19.1193C68.9445 19.1705 68.6692 19.1974 68.3932 19.1996C67.4812 19.1986 66.8067 18.955 66.3696 18.4689Z" fill="#A11C39"/>
<path d="M71.4874 17.2725C71.442 17.1721 71.4225 17.0615 71.4306 16.9513V16.8919C71.4225 16.7816 71.442 16.6711 71.4874 16.5707C71.5065 16.538 71.5342 16.5114 71.5673 16.4938C71.6004 16.4763 71.6377 16.4684 71.6749 16.4711H73.336C73.3733 16.4684 73.4105 16.4763 73.4437 16.4938C73.4768 16.5114 73.5044 16.538 73.5236 16.5707C73.5689 16.6711 73.5884 16.7816 73.5803 16.8919V16.9513C73.5884 17.0615 73.5689 17.1721 73.5236 17.2725C73.5044 17.3052 73.4768 17.3318 73.4437 17.3493C73.4105 17.3669 73.3733 17.3748 73.336 17.3721H71.6749C71.6377 17.3748 71.6004 17.3669 71.5673 17.3493C71.5342 17.3318 71.5065 17.3052 71.4874 17.2725Z" fill="#A11C39"/>
<path d="M75.7019 18.9363C75.4537 18.7377 75.2657 18.4715 75.1598 18.1686C75.0208 17.781 74.9545 17.3702 74.9643 16.9577C74.9643 16.2714 75.1151 15.7275 75.4166 15.326C75.5638 15.1298 75.7553 14.9728 75.9748 14.8682C76.1944 14.7637 76.4354 14.7147 76.6775 14.7254C76.9743 14.7176 77.2656 14.8077 77.5081 14.9823V13.1402C77.5081 12.9636 77.6657 12.8752 77.9966 12.8752H78.2252C78.5514 12.8752 78.7137 12.9636 78.7137 13.1402V17.6659C78.7137 17.9197 78.7137 18.114 78.7342 18.2473C78.7547 18.3806 78.7657 18.5267 78.7862 18.6857C78.8017 18.7455 78.8101 18.807 78.8114 18.8688C78.8114 18.9572 78.7011 19.0294 78.4821 19.068C78.2903 19.1093 78.0949 19.1314 77.8989 19.1338C77.857 19.1372 77.8151 19.1275 77.7788 19.106C77.7425 19.0844 77.7134 19.0521 77.6956 19.0134C77.6569 18.9316 77.6284 18.8453 77.6105 18.7564C77.5916 18.6649 77.579 18.6038 77.5743 18.5701C77.4719 18.7575 77.3208 18.9125 77.1377 19.0182C76.9389 19.1364 76.7122 19.197 76.4821 19.1932C76.2015 19.1965 75.9275 19.1063 75.7019 18.9363ZM77.5128 17.7045V15.8528C77.34 15.75 77.1439 15.6947 76.9438 15.6922C76.4374 15.6922 76.1847 16.1129 76.1858 16.9545C76.1858 17.7778 76.4059 18.1895 76.8461 18.1895C77.1067 18.1916 77.3289 18.03 77.5128 17.7045Z" fill="#A11C39"/>
<path d="M80.7424 18.6118C80.3925 18.2211 80.2171 17.6804 80.216 16.9898C80.216 16.2104 80.3915 15.6381 80.7424 15.273C81.0933 14.9079 81.5777 14.7253 82.1955 14.7253C82.7976 14.7253 83.2415 14.9245 83.5273 15.3228C83.828 15.7762 83.9778 16.3161 83.9544 16.8629C83.9301 16.9762 83.8717 17.079 83.7873 17.1568C83.6754 17.2869 83.5935 17.3527 83.5383 17.3527H81.4627C81.4627 17.4778 81.4873 17.6016 81.5349 17.7169C81.5825 17.8322 81.6523 17.9366 81.74 18.0241C81.9296 18.1677 82.163 18.2383 82.3988 18.2232C82.5394 18.225 82.6794 18.2066 82.8149 18.1686C82.9476 18.1305 83.0781 18.0849 83.2058 18.0321C83.2608 17.9994 83.3211 17.9771 83.3839 17.9662C83.4209 17.9723 83.4563 17.9861 83.4877 18.0068C83.5192 18.0276 83.5461 18.0548 83.5667 18.0867C83.6366 18.1688 83.6945 18.2607 83.7385 18.3597C83.7765 18.4336 83.8001 18.5143 83.8078 18.5974C83.8078 18.7243 83.7227 18.8335 83.5556 18.9186C83.3655 19.0165 83.1621 19.0848 82.952 19.1209C82.7512 19.1625 82.547 19.185 82.3421 19.1884C81.6255 19.1948 81.0923 19.0026 80.7424 18.6118ZM82.7818 16.5417C82.792 16.3281 82.7411 16.1161 82.6352 15.9314C82.588 15.8574 82.5226 15.7974 82.4454 15.7574C82.3682 15.7173 82.282 15.6987 82.1955 15.7034C81.7941 15.7034 81.5499 15.9828 81.4627 16.5417H82.7818Z" fill="#A11C39"/>
<path d="M85.485 20.5744V16.2511C85.4875 16.0646 85.4807 15.878 85.4645 15.6922C85.4519 15.5621 85.433 15.416 85.4125 15.2554C85.3982 15.1986 85.3897 15.1405 85.3873 15.0819C85.3873 14.9936 85.4976 14.9213 85.7167 14.8828C85.9085 14.8414 86.1038 14.8194 86.2998 14.8169C86.3406 14.8131 86.3816 14.8216 86.4177 14.8413C86.4539 14.861 86.4836 14.8911 86.5031 14.9278C86.5413 15.0041 86.5698 15.085 86.5882 15.1687C86.6071 15.2554 86.6197 15.3148 86.6245 15.3469C86.7273 15.1599 86.8782 15.005 87.061 14.8988C87.2843 14.7715 87.5386 14.7122 87.794 14.7279C88.0493 14.7435 88.2949 14.8335 88.5015 14.9872C88.7507 15.1845 88.9393 15.4503 89.0453 15.7532C89.1834 16.1416 89.2497 16.5527 89.2407 16.9658C89.2407 17.651 89.0899 18.1943 88.7884 18.5958C88.6415 18.7925 88.4502 18.95 88.2306 19.0549C88.011 19.1597 87.7698 19.2089 87.5275 19.1981C87.2306 19.2054 86.9392 19.1147 86.697 18.9395V20.5744C86.697 20.7511 86.5394 20.841 86.2084 20.841H85.9799C85.6473 20.841 85.485 20.7511 85.485 20.5744ZM88.0177 16.9658C88.0177 16.1424 87.7976 15.7302 87.3573 15.7291C87.0978 15.7291 86.8756 15.8897 86.6907 16.2109V18.0611C86.8635 18.1638 87.0595 18.2192 87.2596 18.2217C87.766 18.2249 88.0187 17.8062 88.0177 16.9658Z" fill="#A11C39"/>
<path d="M90.7902 18.8657C90.5899 18.6191 90.487 18.3053 90.5018 17.9856C90.4968 17.7776 90.5366 17.5711 90.6182 17.3805C90.6999 17.1899 90.8216 17.0198 90.9746 16.8822C91.2898 16.59 91.9098 16.4433 92.8344 16.4422V16.1692C92.8397 16.1018 92.8289 16.0342 92.8028 15.9721C92.7767 15.9099 92.7361 15.8552 92.6846 15.8127C92.5391 15.7221 92.3691 15.681 92.1992 15.6954C92.0361 15.6928 91.8734 15.7123 91.7154 15.7532C91.5889 15.7885 91.4652 15.8331 91.345 15.8865C91.2851 15.9179 91.2223 15.9432 91.1575 15.962C91.1039 15.962 91.044 15.9203 90.9778 15.8367C90.9102 15.7486 90.8531 15.6526 90.8076 15.5509C90.7665 15.4722 90.7413 15.3859 90.7335 15.2971C90.7335 15.204 90.8029 15.1124 90.9384 15.0241C91.1123 14.9206 91.3019 14.8474 91.4995 14.8073C91.7584 14.7507 92.0227 14.7233 92.2875 14.7254C92.9006 14.7254 93.3466 14.8474 93.624 15.0948C93.7626 15.2223 93.8718 15.3797 93.9435 15.5555C94.0152 15.7314 94.0476 15.9212 94.0385 16.1114V17.666C94.0385 17.9197 94.0385 18.114 94.0589 18.2473C94.0794 18.3806 94.0905 18.5268 94.1125 18.6858C94.1268 18.7458 94.1347 18.8072 94.1362 18.8689C94.1362 18.9572 94.0259 19.0295 93.8068 19.068C93.615 19.1094 93.4197 19.1314 93.2236 19.1339C93.1818 19.1372 93.1399 19.1275 93.1035 19.106C93.0672 19.0845 93.0382 19.0522 93.0203 19.0134C92.9814 18.9306 92.9528 18.8432 92.9352 18.7532C92.9163 18.6585 92.9037 18.5926 92.899 18.5621C92.8448 18.6496 92.779 18.729 92.7036 18.7982C92.5828 18.9102 92.4449 19.0013 92.2954 19.068C92.109 19.1545 91.9059 19.1973 91.7012 19.1933C91.2872 19.1965 90.9836 19.0873 90.7902 18.8657ZM92.5365 18.0771C92.6681 17.983 92.7722 17.8542 92.8375 17.7045V17.2468C92.0779 17.2468 91.698 17.4518 91.698 17.8619C91.696 17.9112 91.7044 17.9604 91.7227 18.0061C91.7409 18.0518 91.7685 18.093 91.8036 18.1269C91.888 18.1977 91.9956 18.2333 92.1047 18.2265C92.2606 18.2253 92.4121 18.1729 92.5365 18.0771Z" fill="#A11C39"/>
<defs>
<linearGradient id="paint0_linear" x1="22.0442" y1="23.1086" x2="40.5661" y2="41.2867" gradientUnits="userSpaceOnUse">
<stop stop-color="#A01C38"/>
<stop offset="0.23" stop-color="#9D1D3B"/>
<stop offset="0.44" stop-color="#921F43"/>
<stop offset="0.64" stop-color="#802251"/>
<stop offset="0.82" stop-color="#672764"/>
<stop offset="0.98" stop-color="#4C2C78"/>
</linearGradient>
<linearGradient id="paint1_linear" x1="33.1334" y1="11.2902" x2="24.9924" y2="3.30102" gradientUnits="userSpaceOnUse">
<stop stop-color="#A01C38"/>
<stop offset="0.04" stop-color="#AC3235"/>
<stop offset="0.13" stop-color="#BF5830"/>
<stop offset="0.23" stop-color="#D0782C"/>
<stop offset="0.33" stop-color="#DD9229"/>
<stop offset="0.44" stop-color="#E8A726"/>
<stop offset="0.57" stop-color="#EFB524"/>
<stop offset="0.72" stop-color="#F4BD23"/>
<stop offset="0.98" stop-color="#F5C023"/>
</linearGradient>
<linearGradient id="paint2_linear" x1="23.3995" y1="38.4812" x2="23.3995" y2="20.3495" gradientUnits="userSpaceOnUse">
<stop stop-color="#A01C38"/>
<stop offset="0.47" stop-color="#C56532"/>
<stop offset="0.83" stop-color="#DD952E"/>
<stop offset="1" stop-color="#E6A82D"/>
</linearGradient>
<linearGradient id="paint3_linear" x1="28.3138" y1="20.8185" x2="17.0145" y2="20.8185" gradientUnits="userSpaceOnUse">
<stop stop-color="#842452"/>
<stop offset="0.14" stop-color="#77265B"/>
<stop offset="0.45" stop-color="#5F296B"/>
<stop offset="0.73" stop-color="#512B75"/>
<stop offset="0.98" stop-color="#4C2C78"/>
</linearGradient>
</defs>
</svg>
