<svg width="168" height="100" viewBox="0 0 168 100" fill="none" xmlns="http://www.w3.org/2000/svg">
<path d="M160.713 26.9592L113.058 100L168 61.8078L160.713 26.9592Z" fill="url(#paint0_linear)"/>
<g style="mix-blend-mode:multiply" opacity="0.15">
<path d="M168 61.8078L132.57 70.0428L137.973 61.8078H168Z" fill="#636466"/>
</g>
<path d="M106.536 0L132.51 61.8078H168L106.536 0Z" fill="url(#paint1_linear)"/>
<path d="M29.5897 70.7416H24.644C24.4409 69.7382 24.3577 68.7141 24.3964 67.691C23.0741 68.9629 21.5095 69.955 19.7959 70.6083C18.0823 71.2615 16.2548 71.5624 14.4225 71.493C12.5049 71.5332 10.6002 71.1686 8.83265 70.4229C7.06506 69.6773 5.47416 68.5672 4.16353 67.1651C1.39678 64.2798 0.0108979 60.6081 0.00589472 56.15C-0.0486865 54.244 0.276226 52.3463 0.961692 50.5674C1.64716 48.7885 2.67946 47.164 3.99843 45.7886C5.28211 44.4299 6.83671 43.3565 8.5614 42.6381C10.2861 41.9197 12.1424 41.5723 14.0098 41.6184C18.1274 41.6184 21.4795 42.9133 24.0662 45.503V29.1607H29.2595V63.2429C29.2595 65.5571 29.3695 68.0567 29.5897 70.7416ZM24.0662 60.1022V53.6404C24.0662 51.5516 23.053 49.7333 21.0192 48.2005C19.1664 46.7233 16.8735 45.9087 14.5051 45.8862C13.2233 45.8311 11.9453 46.0613 10.7631 46.5602C9.58084 47.0591 8.52386 47.8144 7.66826 48.7715C5.92476 50.8095 5.01352 53.431 5.11664 56.1124C5.11664 59.4685 5.96718 62.1083 7.66826 64.0318C9.36934 65.9554 11.7584 66.9196 14.8353 66.9246C17.202 67.031 19.5411 66.381 21.5145 65.0687C22.319 64.5188 22.9737 63.7766 23.4193 62.9093C23.8648 62.0421 24.0872 61.0772 24.0662 60.1022V60.1022Z" fill="#0C2F53"/>
<path d="M59.331 69.2614C55.6769 70.6855 51.7993 71.4487 47.8787 71.5155C43.4259 71.5155 39.7586 70.1806 36.8767 67.5107C35.4575 66.1927 34.3398 64.583 33.6002 62.7919C32.8605 61.0009 32.5164 59.0709 32.5915 57.1343C32.5915 52.4608 34.0199 48.6663 36.8767 45.751C38.2881 44.3813 39.9602 43.3096 41.7934 42.5996C43.6267 41.8897 45.5839 41.5561 47.5485 41.6185C56.0089 41.6185 60.3216 46.9282 60.4867 57.5475H37.6648C37.8899 60.553 38.9331 62.8071 40.8318 64.4301C42.9081 66.117 45.5301 66.9832 48.2014 66.8645C51.8179 66.7636 55.39 66.0392 58.7606 64.7231L59.331 69.2614ZM55.3835 53.1746C55.1927 51.1247 54.2209 49.2271 52.6698 47.8756C51.1187 46.5241 49.1073 45.8225 47.0532 45.9163C44.9189 45.8968 42.8423 46.6102 41.1695 47.9375C39.4754 49.217 38.3386 51.1006 37.995 53.1971L55.3835 53.1746Z" fill="#0C2F53"/>
<path d="M92.7046 55.9771C92.7046 60.5455 91.3062 64.2723 88.5095 67.1575C87.1623 68.5704 85.5352 69.686 83.7323 70.4325C81.9295 71.1791 79.9907 71.5403 78.0403 71.493C74.1979 71.493 71.0659 70.3634 68.6444 68.1043V82.5456H63.4586V51.777C63.5147 48.5799 63.4019 45.3821 63.1208 42.197H68.2316L68.8095 45.2551C71.5631 42.8924 75.0743 41.6015 78.7007 41.6184C80.5716 41.5627 82.4332 41.9018 84.1645 42.6138C85.8958 43.3258 87.4581 44.3947 88.7496 45.751C90.054 47.1072 91.0755 48.71 91.7546 50.4657C92.4336 52.2215 92.7566 54.0951 92.7046 55.9771V55.9771ZM87.6839 56.0598C87.7544 53.3993 86.7943 50.8146 85.0047 48.8466C84.1512 47.894 83.1011 47.1385 81.9271 46.6325C80.753 46.1266 79.4832 45.8822 78.2054 45.9163C75.8146 45.9929 73.5314 46.9292 71.7738 48.5536C69.6675 50.3118 68.6143 52.2578 68.6143 54.3917V59.0052C68.6178 60.0756 68.8601 61.1317 69.3237 62.0963C69.7872 63.061 70.4603 63.9096 71.2935 64.5803C73.1055 66.1592 75.444 66.9987 77.8452 66.9321C80.9222 66.9321 83.3262 65.9553 85.0573 64.0018C86.7884 62.0482 87.6639 59.4009 87.6839 56.0598Z" fill="#0C2F53"/>
<path d="M118.746 70.5012L113.883 71.493L113.065 67.8563C110.463 70.2044 107.082 71.5005 103.579 71.493C101.053 71.5889 98.574 70.7908 96.5771 69.2389C95.6623 68.5022 94.9273 67.5665 94.4279 66.5028C93.9286 65.4391 93.678 64.2754 93.6953 63.1001C93.6953 56.1124 99.9318 52.5384 112.405 52.3781C111.849 48.2531 109.598 46.1793 105.65 46.1793C102.284 46.2655 98.9623 46.9684 95.8492 48.2531L95.2713 43.542C98.7169 42.4883 102.295 41.9341 105.898 41.8965C113.703 41.8965 117.605 45.9038 117.605 53.9184V63.2429C117.66 65.7025 118.044 68.1436 118.746 70.5012ZM112.405 61.8378V56.8938C103.449 57.0541 98.9711 58.9501 98.9711 62.5817C98.9711 65.497 100.59 66.9547 103.827 66.9547C105.715 66.9452 107.576 66.5031 109.268 65.6623C111.392 64.5879 112.405 63.318 112.405 61.8378V61.8378Z" fill="#0C2F53"/>
<defs>
<linearGradient id="paint0_linear" x1="149.561" y1="55.8795" x2="93.9307" y2="98.9966" gradientUnits="userSpaceOnUse">
<stop stop-color="#FFF200"/>
<stop offset="1" stop-color="#FFC60B"/>
</linearGradient>
<linearGradient id="paint1_linear" x1="13958.1" y1="5565.79" x2="8175.31" y2="325.086" gradientUnits="userSpaceOnUse">
<stop stop-color="#FFF200"/>
<stop offset="1" stop-color="#FFC60B"/>
</linearGradient>
</defs>
</svg>
