<svg width="233" height="50" viewBox="0 0 233 50" fill="none" xmlns="http://www.w3.org/2000/svg">
<path d="M192.309 35.014C191.039 31.9238 190.39 28.5954 190.401 25.2339C190.413 21.8725 191.085 18.5491 192.376 15.4684C196.261 6.24026 204.927 0.684705 214.787 0.443498C218.139 0.364179 221.471 0.978806 224.593 2.25172C227.714 3.52463 230.562 5.43048 232.97 7.85869L225.433 17.7871C224.175 16.0743 222.531 14.711 220.647 13.818C218.763 12.9249 216.696 12.5297 214.63 12.6673C211.59 12.8418 208.733 14.2358 206.658 16.5568C204.582 18.8778 203.451 21.9455 203.5 25.1167C203.567 31.5204 208.729 37.5661 215.28 37.7217C219.613 37.784 223.752 35.3875 225.627 31.925L233 42.507C228.279 47.4945 221.877 49.8521 215.407 49.9844C205.576 50.1323 196.194 44.2032 192.309 35.014Z" fill="#B50938"/>
<path d="M66.6429 0.404633H53.5698V49.6577H66.6429V0.404633Z" fill="#582E91"/>
<path fill-rule="evenodd" clip-rule="evenodd" d="M0 0.404633H13.1329V33.8936L37.3293 0.404633H53.5026L17.9214 49.6655H0V0.404633Z" fill="#582E91"/>
<path d="M92.0646 49.7277C84.2357 49.7277 76.3769 47.3078 70.4529 41.7756L77.1164 32.5475C81.9722 36.7258 87.1416 38.6788 92.5128 38.6788C93.8831 38.7768 95.2524 38.4722 96.4646 37.7996C97.0684 37.3991 97.508 36.7795 97.6984 36.0608C97.8889 35.3422 97.8166 34.5755 97.4955 33.9091C96.3302 31.8861 92.0646 31.1469 90.0252 30.61C87.7031 30.1054 85.4129 29.4532 83.1674 28.657C76.601 26.455 72.0739 21.7009 72.6566 14.2157C72.7996 11.991 73.4418 9.83238 74.5317 7.91338C75.6216 5.99438 77.1287 4.3686 78.9317 3.16682C82.2261 0.941488 86.4992 0 90.5108 0C97.3685 0 104.032 1.82073 109.463 6.40367L102.799 15.5618C100.157 13.5965 97.1655 12.1974 93.9994 11.4457C91.4819 10.8388 88.4415 10.5742 86.6934 11.9203C86.1404 12.3398 85.7575 12.9589 85.6193 13.6567C85.4812 14.3546 85.5978 15.081 85.9464 15.6941C86.6561 16.9157 88.3742 17.4525 89.6442 17.896C90.6751 18.2306 91.9675 18.573 93.5885 18.9776C97.1444 19.7557 101.35 20.8606 104.712 23.0159C106.702 24.1873 108.331 25.9243 109.409 28.0239C110.488 30.1236 110.97 32.4994 110.8 34.8739C110.682 37.5522 109.867 40.1465 108.441 42.3793C107.016 44.612 105.035 46.399 102.71 47.549C99.359 49.0838 95.7238 49.8278 92.0646 49.7277V49.7277Z" fill="#582E91"/>
<path d="M190.053 38.0018H165.296V30.2598H187.872V19.4755H165.296V12.4027H190.053V0.53685H152.141V49.5954H190.053V38.0018Z" fill="#B50938"/>
<path d="M149.997 0.53685H109.53V12.4027H123.634V49.5954H136.64V12.4027H149.997V0.53685Z" fill="#B50938"/>
</svg>
